<svg xmlns="http://www.w3.org/2000/svg" width="327.168" height="454.87" viewBox="0 0 327.168 454.87">
  <g id="Group_121" data-name="Group 121" transform="translate(-605.8 -3091.113)">
    <text id="N" transform="translate(613.093 3544.225) rotate(-54.136)" fill="#70ea78" font-size="12" font-family="UniversLTPro-BoldExt, Univers LT Pro" font-weight="700"><tspan x="0" y="0">N</tspan></text>
    <text id="U" transform="matrix(0.549, -0.836, 0.836, 0.549, 620.027, 3534.585)" fill="#70ea78" font-size="12" font-family="UniversLTPro-BoldExt, Univers LT Pro" font-weight="700"><tspan x="0" y="0">U</tspan></text>
    <text id="N-2" data-name="N" transform="matrix(0.519, -0.854, 0.854, 0.519, 626.063, 3525.382)" fill="#70ea78" font-size="12" font-family="UniversLTPro-BoldExt, Univers LT Pro" font-weight="700"><tspan x="0" y="0">N</tspan></text>
    <text id="C" transform="translate(632.209 3515.223) rotate(-60.612)" fill="#70ea78" font-size="12" font-family="UniversLTPro-BoldExt, Univers LT Pro" font-weight="700"><tspan x="0" y="0">C</tspan></text>
    <text id="_" data-name=" " transform="translate(637.572 3505.612) rotate(-61.766)" fill="#70ea78" font-size="12" font-family="UniversLTPro-BoldExt, Univers LT Pro" font-weight="700"><tspan x="0" y="0"> </tspan></text>
    <text id="E" transform="translate(639.913 3501.281) rotate(-62.965)" fill="#70ea78" font-size="12" font-family="UniversLTPro-BoldExt, Univers LT Pro" font-weight="700"><tspan x="0" y="0">E</tspan></text>
    <text id="G" transform="translate(644.144 3493.031) rotate(-64.534)" fill="#70ea78" font-size="12" font-family="UniversLTPro-BoldExt, Univers LT Pro" font-weight="700"><tspan x="0" y="0">G</tspan></text>
    <text id="E-2" data-name="E" transform="translate(649.245 3482.31) rotate(-66.182)" fill="#70ea78" font-size="12" font-family="UniversLTPro-BoldExt, Univers LT Pro" font-weight="700"><tspan x="0" y="0">E</tspan></text>
    <text id="T" transform="translate(652.988 3473.827) rotate(-67.211)" fill="#70ea78" font-size="12" font-family="UniversLTPro-BoldExt, Univers LT Pro" font-weight="700"><tspan x="0" y="0">T</tspan></text>
    <text id="_2" data-name=" " transform="translate(656.539 3465.276) rotate(-68.269)" fill="#70ea78" font-size="12" font-family="UniversLTPro-BoldExt, Univers LT Pro" font-weight="700"><tspan x="0" y="0"> </tspan></text>
    <text id="B" transform="translate(658.372 3460.707) rotate(-69.359)" fill="#70ea78" font-size="12" font-family="UniversLTPro-BoldExt, Univers LT Pro" font-weight="700"><tspan x="0" y="0">B</tspan></text>
    <text id="I" transform="translate(662.202 3450.39) rotate(-70.481)" fill="#70ea78" font-size="12" font-family="UniversLTPro-BoldExt, Univers LT Pro" font-weight="700"><tspan x="0" y="0">I</tspan></text>
    <text id="B-2" data-name="B" transform="translate(663.855 3445.752) rotate(-71.634)" fill="#70ea78" font-size="12" font-family="UniversLTPro-BoldExt, Univers LT Pro" font-weight="700"><tspan x="0" y="0">B</tspan></text>
    <text id="E-3" data-name="E" transform="translate(667.298 3435.299) rotate(-73.223)" fill="#70ea78" font-size="12" font-family="UniversLTPro-BoldExt, Univers LT Pro" font-weight="700"><tspan x="0" y="0">E</tspan></text>
    <text id="N-3" data-name="N" transform="translate(670.005 3426.431) rotate(-74.871)" fill="#70ea78" font-size="12" font-family="UniversLTPro-BoldExt, Univers LT Pro" font-weight="700"><tspan x="0" y="0">N</tspan></text>
    <text id="D" transform="translate(673.132 3414.976) rotate(-76.577)" fill="#70ea78" font-size="12" font-family="UniversLTPro-BoldExt, Univers LT Pro" font-weight="700"><tspan x="0" y="0">D</tspan></text>
    <text id="U-2" data-name="U" transform="matrix(0.21, -0.978, 0.978, 0.21, 675.698, 3404.273)" fill="#70ea78" font-size="12" font-family="UniversLTPro-BoldExt, Univers LT Pro" font-weight="700"><tspan x="0" y="0">U</tspan></text>
    <text id="M" transform="matrix(0.179, -0.984, 0.984, 0.179, 678.015, 3393.513)" fill="#70ea78" font-size="12" font-family="UniversLTPro-BoldExt, Univers LT Pro" font-weight="700"><tspan x="0" y="0">M</tspan></text>
    <text id="_3" data-name=" " transform="matrix(0.147, -0.989, 0.989, 0.147, 680.681, 3378.404)" fill="#70ea78" font-size="12" font-family="UniversLTPro-BoldExt, Univers LT Pro" font-weight="700"><tspan x="0" y="0"> </tspan></text>
    <text id="E-4" data-name="E" transform="translate(681.442 3373.54) rotate(-82.528)" fill="#70ea78" font-size="12" font-family="UniversLTPro-BoldExt, Univers LT Pro" font-weight="700"><tspan x="0" y="0">E</tspan></text>
    <text id="S" transform="translate(682.684 3364.352) rotate(-83.986)" fill="#70ea78" font-size="12" font-family="UniversLTPro-BoldExt, Univers LT Pro" font-weight="700"><tspan x="0" y="0">S</tspan></text>
    <text id="T-2" data-name="T" transform="matrix(0.088, -0.996, 0.996, 0.088, 683.74, 3354.269)" fill="#70ea78" font-size="12" font-family="UniversLTPro-BoldExt, Univers LT Pro" font-weight="700"><tspan x="0" y="0">T</tspan></text>
    <text id="_." data-name="." transform="translate(684.41 3346.338) rotate(-85.979)" fill="#70ea78" font-size="12" font-family="UniversLTPro-BoldExt, Univers LT Pro" font-weight="700"><tspan x="0" y="0">.</tspan></text>
    <text id="_4" data-name=" " transform="matrix(0.052, -0.999, 0.999, 0.052, 684.764, 3341.428)" fill="#70ea78" font-size="12" font-family="UniversLTPro-BoldExt, Univers LT Pro" font-weight="700"><tspan x="0" y="0"> </tspan></text>
    <text id="P" transform="translate(685.067 3336.515) rotate(-88.023)" fill="#70ea78" font-size="12" font-family="UniversLTPro-BoldExt, Univers LT Pro" font-weight="700"><tspan x="0" y="0">P</tspan></text>
    <text id="H" transform="translate(685.45 3326.382) rotate(-89.587)" fill="#70ea78" font-size="12" font-family="UniversLTPro-BoldExt, Univers LT Pro" font-weight="700"><tspan x="0" y="0">H</tspan></text>
    <text id="A" transform="translate(685.558 3315.376) rotate(-91.178)" fill="#70ea78" font-size="12" font-family="UniversLTPro-BoldExt, Univers LT Pro" font-weight="700"><tspan x="0" y="0">A</tspan></text>
    <text id="S-2" data-name="S" transform="translate(685.317 3303.505) rotate(-92.791)" fill="#70ea78" font-size="12" font-family="UniversLTPro-BoldExt, Univers LT Pro" font-weight="700"><tspan x="0" y="0">S</tspan></text>
    <text id="E-5" data-name="E" transform="matrix(-0.068, -0.998, 0.998, -0.068, 684.81, 3293.379)" fill="#70ea78" font-size="12" font-family="UniversLTPro-BoldExt, Univers LT Pro" font-weight="700"><tspan x="0" y="0">E</tspan></text>
    <text id="L" transform="translate(684.169 3284.13) rotate(-95.527)" fill="#70ea78" font-size="12" font-family="UniversLTPro-BoldExt, Univers LT Pro" font-weight="700"><tspan x="0" y="0">L</tspan></text>
    <text id="L-2" data-name="L" transform="translate(683.373 3275.764) rotate(-96.636)" fill="#70ea78" font-size="12" font-family="UniversLTPro-BoldExt, Univers LT Pro" font-weight="700"><tspan x="0" y="0">L</tspan></text>
    <text id="U-3" data-name="U" transform="translate(682.382 3267.419) rotate(-97.161)" fill="#70ea78" font-size="12" font-family="UniversLTPro-BoldExt, Univers LT Pro" font-weight="700"><tspan x="0" y="0">U</tspan></text>
    <text id="S-3" data-name="S" transform="translate(681.024 3256.496) rotate(-94.579)" fill="#70ea78" font-size="12" font-family="UniversLTPro-BoldExt, Univers LT Pro" font-weight="700"><tspan x="0" y="0">S</tspan></text>
    <text id="_5" data-name=" " transform="matrix(-0.056, -0.998, 0.998, -0.056, 680.227, 3246.389)" fill="#70ea78" font-size="12" font-family="UniversLTPro-BoldExt, Univers LT Pro" font-weight="700"><tspan x="0" y="0"> </tspan></text>
    <text id="A-2" data-name="A" transform="translate(679.936 3241.768) rotate(-91.818)" fill="#70ea78" font-size="12" font-family="UniversLTPro-BoldExt, Univers LT Pro" font-weight="700"><tspan x="0" y="0">A</tspan></text>
    <text id="T-3" data-name="T" transform="matrix(0.02, -1, 1, 0.02, 679.607, 3230.765)" fill="#70ea78" font-size="12" font-family="UniversLTPro-BoldExt, Univers LT Pro" font-weight="700"><tspan x="0" y="0">T</tspan></text>
    <text id="_6" data-name=" " transform="matrix(0.047, -0.999, 0.999, 0.047, 679.809, 3221.508)" fill="#70ea78" font-size="12" font-family="UniversLTPro-BoldExt, Univers LT Pro" font-weight="700"><tspan x="0" y="0"> </tspan></text>
    <text id="E-6" data-name="E" transform="translate(679.971 3216.585) rotate(-84.911)" fill="#70ea78" font-size="12" font-family="UniversLTPro-BoldExt, Univers LT Pro" font-weight="700"><tspan x="0" y="0">E</tspan></text>
    <text id="X" transform="translate(680.764 3207.346) rotate(-82.384)" fill="#70ea78" font-size="12" font-family="UniversLTPro-BoldExt, Univers LT Pro" font-weight="700"><tspan x="0" y="0">X</tspan></text>
    <text id="_7" data-name=" " transform="translate(682.326 3196.453) rotate(-79.744)" fill="#70ea78" font-size="12" font-family="UniversLTPro-BoldExt, Univers LT Pro" font-weight="700"><tspan x="0" y="0"> </tspan></text>
    <text id="N-4" data-name="N" transform="translate(683.086 3191.58) rotate(-76.046)" fill="#70ea78" font-size="12" font-family="UniversLTPro-BoldExt, Univers LT Pro" font-weight="700"><tspan x="0" y="0">N</tspan></text>
    <text id="E-7" data-name="E" transform="matrix(0.306, -0.952, 0.952, 0.306, 685.959, 3180.057)" fill="#70ea78" font-size="12" font-family="UniversLTPro-BoldExt, Univers LT Pro" font-weight="700"><tspan x="0" y="0">E</tspan></text>
    <text id="C-2" data-name="C" transform="translate(688.798 3171.228) rotate(-68.078)" fill="#70ea78" font-size="12" font-family="UniversLTPro-BoldExt, Univers LT Pro" font-weight="700"><tspan x="0" y="0">C</tspan></text>
    <text id="_8" data-name=" " transform="matrix(0.441, -0.898, 0.898, 0.441, 693.035, 3161.07)" fill="#70ea78" font-size="12" font-family="UniversLTPro-BoldExt, Univers LT Pro" font-weight="700"><tspan x="0" y="0"> </tspan></text>
    <text id="E-8" data-name="E" transform="translate(695.162 3156.628) rotate(-60.57)" fill="#70ea78" font-size="12" font-family="UniversLTPro-BoldExt, Univers LT Pro" font-weight="700"><tspan x="0" y="0">E</tspan></text>
    <text id="X-2" data-name="X" transform="matrix(0.574, -0.819, 0.819, 0.574, 699.715, 3148.542)" fill="#70ea78" font-size="12" font-family="UniversLTPro-BoldExt, Univers LT Pro" font-weight="700"><tspan x="0" y="0">X</tspan></text>
    <text id="_9" data-name=" " transform="translate(706.137 3139.605) rotate(-50.437)" fill="#70ea78" font-size="12" font-family="UniversLTPro-BoldExt, Univers LT Pro" font-weight="700"><tspan x="0" y="0"> </tspan></text>
    <text id="H-2" data-name="H" transform="matrix(0.696, -0.718, 0.718, 0.696, 709.19, 3135.731)" fill="#70ea78" font-size="12" font-family="UniversLTPro-BoldExt, Univers LT Pro" font-weight="700"><tspan x="0" y="0">H</tspan></text>
    <text id="E-9" data-name="E" transform="translate(716.911 3127.882) rotate(-40.165)" fill="#70ea78" font-size="12" font-family="UniversLTPro-BoldExt, Univers LT Pro" font-weight="700"><tspan x="0" y="0">E</tspan></text>
    <text id="N-5" data-name="N" transform="translate(723.965 3121.84) rotate(-33.458)" fill="#70ea78" font-size="12" font-family="UniversLTPro-BoldExt, Univers LT Pro" font-weight="700"><tspan x="0" y="0">N</tspan></text>
    <text id="D-2" data-name="D" transform="matrix(0.891, -0.454, 0.454, 0.891, 733.872, 3115.274)" fill="#70ea78" font-size="12" font-family="UniversLTPro-BoldExt, Univers LT Pro" font-weight="700"><tspan x="0" y="0">D</tspan></text>
    <text id="R" transform="translate(743.666 3110.223) rotate(-20.829)" fill="#70ea78" font-size="12" font-family="UniversLTPro-BoldExt, Univers LT Pro" font-weight="700"><tspan x="0" y="0">R</tspan></text>
    <text id="E-10" data-name="E" transform="translate(753.957 3106.307) rotate(-15.96)" fill="#70ea78" font-size="12" font-family="UniversLTPro-BoldExt, Univers LT Pro" font-weight="700"><tspan x="0" y="0">E</tspan></text>
    <text id="R-2" data-name="R" transform="matrix(0.98, -0.197, 0.197, 0.98, 762.869, 3103.73)" fill="#70ea78" font-size="12" font-family="UniversLTPro-BoldExt, Univers LT Pro" font-weight="700"><tspan x="0" y="0">R</tspan></text>
    <text id="I-2" data-name="I" transform="translate(773.682 3101.686) rotate(-7.81)" fill="#70ea78" font-size="12" font-family="UniversLTPro-BoldExt, Univers LT Pro" font-weight="700"><tspan x="0" y="0">I</tspan></text>
    <text id="T-4" data-name="T" transform="translate(778.556 3100.963) rotate(-4.428)" fill="#70ea78" font-size="12" font-family="UniversLTPro-BoldExt, Univers LT Pro" font-weight="700"><tspan x="0" y="0">T</tspan></text>
    <text id="_10" data-name=" " transform="translate(787.792 3100.311) rotate(-1.981)" fill="#70ea78" font-size="12" font-family="UniversLTPro-BoldExt, Univers LT Pro" font-weight="700"><tspan x="0" y="0"> </tspan></text>
    <text id="S-4" data-name="S" transform="matrix(1, 0.02, -0.02, 1, 792.713, 3100.111)" fill="#70ea78" font-size="12" font-family="UniversLTPro-BoldExt, Univers LT Pro" font-weight="700"><tspan x="0" y="0">S</tspan></text>
    <text id="O" transform="translate(802.857 3100.288) rotate(5.698)" fill="#70ea78" font-size="12" font-family="UniversLTPro-BoldExt, Univers LT Pro" font-weight="700"><tspan x="0" y="0">O</tspan></text>
    <text id="D-3" data-name="D" transform="translate(814.683 3101.49) rotate(9.309)" fill="#70ea78" font-size="12" font-family="UniversLTPro-BoldExt, Univers LT Pro" font-weight="700"><tspan x="0" y="0">D</tspan></text>
    <text id="A-3" data-name="A" transform="translate(825.126 3103.178) rotate(13.492)" fill="#70ea78" font-size="12" font-family="UniversLTPro-BoldExt, Univers LT Pro" font-weight="700"><tspan x="0" y="0">A</tspan></text>
    <text id="L-3" data-name="L" transform="matrix(0.957, 0.29, -0.29, 0.957, 836.671, 3105.958)" fill="#70ea78" font-size="12" font-family="UniversLTPro-BoldExt, Univers LT Pro" font-weight="700"><tspan x="0" y="0">L</tspan></text>
    <text id="E-11" data-name="E" transform="matrix(0.937, 0.35, -0.35, 0.937, 844.743, 3108.318)" fill="#70ea78" font-size="12" font-family="UniversLTPro-BoldExt, Univers LT Pro" font-weight="700"><tspan x="0" y="0">E</tspan></text>
    <text id="S-5" data-name="S" transform="matrix(0.893, 0.451, -0.451, 0.893, 853.449, 3111.536)" fill="#70ea78" font-size="12" font-family="UniversLTPro-BoldExt, Univers LT Pro" font-weight="700"><tspan x="0" y="0">S</tspan></text>
    <text id="_11" data-name=" " transform="translate(862.458 3116.189) rotate(31.648)" fill="#70ea78" font-size="12" font-family="UniversLTPro-BoldExt, Univers LT Pro" font-weight="700"><tspan x="0" y="0"> </tspan></text>
    <text id="T-5" data-name="T" transform="matrix(0.817, 0.576, -0.576, 0.817, 866.323, 3118.481)" fill="#70ea78" font-size="12" font-family="UniversLTPro-BoldExt, Univers LT Pro" font-weight="700"><tspan x="0" y="0">T</tspan></text>
    <text id="E-12" data-name="E" transform="translate(873.887 3123.833) rotate(40.797)" fill="#70ea78" font-size="12" font-family="UniversLTPro-BoldExt, Univers LT Pro" font-weight="700"><tspan x="0" y="0">E</tspan></text>
    <text id="M-2" data-name="M" transform="matrix(0.68, 0.733, -0.733, 0.68, 881.027, 3129.782)" fill="#70ea78" font-size="12" font-family="UniversLTPro-BoldExt, Univers LT Pro" font-weight="700"><tspan x="0" y="0">M</tspan></text>
    <text id="P-2" data-name="P" transform="translate(891.332 3141.151) rotate(53.088)" fill="#70ea78" font-size="12" font-family="UniversLTPro-BoldExt, Univers LT Pro" font-weight="700"><tspan x="0" y="0">P</tspan></text>
    <text id="O-2" data-name="O" transform="translate(897.397 3149.281) rotate(57.754)" fill="#70ea78" font-size="12" font-family="UniversLTPro-BoldExt, Univers LT Pro" font-weight="700"><tspan x="0" y="0">O</tspan></text>
    <text id="R-3" data-name="R" transform="translate(903.691 3159.37) rotate(63.063)" fill="#70ea78" font-size="12" font-family="UniversLTPro-BoldExt, Univers LT Pro" font-weight="700"><tspan x="0" y="0">R</tspan></text>
    <text id="_12" data-name=" " transform="translate(908.602 3169.218) rotate(65.615)" fill="#70ea78" font-size="12" font-family="UniversLTPro-BoldExt, Univers LT Pro" font-weight="700"><tspan x="0" y="0"> </tspan></text>
    <text id="S-6" data-name="S" transform="translate(910.683 3173.683) rotate(68.929)" fill="#70ea78" font-size="12" font-family="UniversLTPro-BoldExt, Univers LT Pro" font-weight="700"><tspan x="0" y="0">S</tspan></text>
    <text id="I-3" data-name="I" transform="translate(914.272 3183.165) rotate(71.357)" fill="#70ea78" font-size="12" font-family="UniversLTPro-BoldExt, Univers LT Pro" font-weight="700"><tspan x="0" y="0">I</tspan></text>
    <text id="T-6" data-name="T" transform="translate(915.864 3187.824) rotate(73.744)" fill="#70ea78" font-size="12" font-family="UniversLTPro-BoldExt, Univers LT Pro" font-weight="700"><tspan x="0" y="0">T</tspan></text>
    <text id="_13" data-name=" " transform="translate(918.379 3196.735) rotate(76.096)" fill="#70ea78" font-size="12" font-family="UniversLTPro-BoldExt, Univers LT Pro" font-weight="700"><tspan x="0" y="0"> </tspan></text>
    <text id="A-4" data-name="A" transform="translate(919.571 3201.213) rotate(79.189)" fill="#70ea78" font-size="12" font-family="UniversLTPro-BoldExt, Univers LT Pro" font-weight="700"><tspan x="0" y="0">A</tspan></text>
    <text id="M-3" data-name="M" transform="translate(921.909 3212.867) rotate(83.762)" fill="#70ea78" font-size="12" font-family="UniversLTPro-BoldExt, Univers LT Pro" font-weight="700"><tspan x="0" y="0">M</tspan></text>
    <text id="E-13" data-name="E" transform="translate(923.524 3228.126) rotate(87.54)" fill="#70ea78" font-size="12" font-family="UniversLTPro-BoldExt, Univers LT Pro" font-weight="700"><tspan x="0" y="0">E</tspan></text>
    <text id="T-7" data-name="T" transform="translate(923.968 3237.39) rotate(90.555)" fill="#70ea78" font-size="12" font-family="UniversLTPro-BoldExt, Univers LT Pro" font-weight="700"><tspan x="0" y="0">T</tspan></text>
    <text id="_14" data-name=" " transform="translate(923.852 3246.648) rotate(92.064)" fill="#70ea78" font-size="12" font-family="UniversLTPro-BoldExt, Univers LT Pro" font-weight="700"><tspan x="0" y="0"> </tspan></text>
    <text id="L-4" data-name="L" transform="translate(923.685 3251.569) rotate(94.332)" fill="#70ea78" font-size="12" font-family="UniversLTPro-BoldExt, Univers LT Pro" font-weight="700"><tspan x="0" y="0">L</tspan></text>
    <text id="I-4" data-name="I" transform="translate(923.026 3259.947) rotate(96.607)" fill="#70ea78" font-size="12" font-family="UniversLTPro-BoldExt, Univers LT Pro" font-weight="700"><tspan x="0" y="0">I</tspan></text>
    <text id="G-2" data-name="G" transform="translate(922.54 3264.849) rotate(98.893)" fill="#70ea78" font-size="12" font-family="UniversLTPro-BoldExt, Univers LT Pro" font-weight="700"><tspan x="0" y="0">G</tspan></text>
    <text id="U-4" data-name="U" transform="matrix(-0.207, 0.978, -0.978, -0.207, 920.658, 3276.573)" fill="#70ea78" font-size="12" font-family="UniversLTPro-BoldExt, Univers LT Pro" font-weight="700"><tspan x="0" y="0">U</tspan></text>
    <text id="L-5" data-name="L" transform="translate(918.294 3287.322) rotate(105.056)" fill="#70ea78" font-size="12" font-family="UniversLTPro-BoldExt, Univers LT Pro" font-weight="700"><tspan x="0" y="0">L</tspan></text>
    <text id="A-5" data-name="A" transform="translate(916.137 3295.448) rotate(108.179)" fill="#70ea78" font-size="12" font-family="UniversLTPro-BoldExt, Univers LT Pro" font-weight="700"><tspan x="0" y="0">A</tspan></text>
    <text id="_.-2" data-name="." transform="translate(912.351 3306.7) rotate(110.54)" fill="#70ea78" font-size="12" font-family="UniversLTPro-BoldExt, Univers LT Pro" font-weight="700"><tspan x="0" y="0">.</tspan></text>
    <text id="_15" data-name=" " transform="translate(910.836 3310.764) rotate(112.123)" fill="#70ea78" font-size="12" font-family="UniversLTPro-BoldExt, Univers LT Pro" font-weight="700"><tspan x="0" y="0"> </tspan></text>
  </g>
</svg>
