<svg xmlns="http://www.w3.org/2000/svg" width="842.737" height="567.308" viewBox="0 0 842.737 567.308">
  <g id="Group_120" data-name="Group 120" transform="translate(-352.272 -1042.604)">
    <text id="N" transform="translate(353.2 1354.287) rotate(18.025)" fill="#70ea78" font-size="12" font-family="UniversLTPro-BoldExt, Univers LT Pro" font-weight="700"><tspan x="0" y="0">N</tspan></text>
    <text id="U" transform="translate(364.499 1357.946) rotate(14.444)" fill="#70ea78" font-size="12" font-family="UniversLTPro-BoldExt, Univers LT Pro" font-weight="700"><tspan x="0" y="0">U</tspan></text>
    <text id="N-2" data-name="N" transform="translate(375.155 1360.703) rotate(11.956)" fill="#70ea78" font-size="12" font-family="UniversLTPro-BoldExt, Univers LT Pro" font-weight="700"><tspan x="0" y="0">N</tspan></text>
    <text id="C" transform="translate(386.779 1363.127) rotate(9.689)" fill="#70ea78" font-size="12" font-family="UniversLTPro-BoldExt, Univers LT Pro" font-weight="700"><tspan x="0" y="0">C</tspan></text>
    <text id="_" data-name=" " transform="translate(397.639 1364.912) rotate(8.105)" fill="#70ea78" font-size="12" font-family="UniversLTPro-BoldExt, Univers LT Pro" font-weight="700"><tspan x="0" y="0"> </tspan></text>
    <text id="E" transform="translate(402.509 1365.631) rotate(6.463)" fill="#70ea78" font-size="12" font-family="UniversLTPro-BoldExt, Univers LT Pro" font-weight="700"><tspan x="0" y="0">E</tspan></text>
    <text id="G" transform="translate(411.72 1366.692) rotate(4.762)" fill="#70ea78" font-size="12" font-family="UniversLTPro-BoldExt, Univers LT Pro" font-weight="700"><tspan x="0" y="0">G</tspan></text>
    <text id="E-2" data-name="E" transform="translate(423.555 1367.659) rotate(2.554)" fill="#70ea78" font-size="12" font-family="UniversLTPro-BoldExt, Univers LT Pro" font-weight="700"><tspan x="0" y="0">E</tspan></text>
    <text id="T" transform="translate(432.817 1368.081) rotate(1.185)" fill="#70ea78" font-size="12" font-family="UniversLTPro-BoldExt, Univers LT Pro" font-weight="700"><tspan x="0" y="0">T</tspan></text>
    <text id="_2" data-name=" " transform="translate(442.075 1368.251) rotate(-0.216)" fill="#70ea78" font-size="12" font-family="UniversLTPro-BoldExt, Univers LT Pro" font-weight="700"><tspan x="0" y="0"> </tspan></text>
    <text id="B" transform="matrix(1, -0.029, 0.029, 1, 446.998, 1368.296)" fill="#70ea78" font-size="12" font-family="UniversLTPro-BoldExt, Univers LT Pro" font-weight="700"><tspan x="0" y="0">B</tspan></text>
    <text id="I" transform="matrix(0.999, -0.046, 0.046, 0.999, 457.999, 1367.958)" fill="#70ea78" font-size="12" font-family="UniversLTPro-BoldExt, Univers LT Pro" font-weight="700"><tspan x="0" y="0">I</tspan></text>
    <text id="B-2" data-name="B" transform="matrix(0.997, -0.072, 0.072, 0.997, 462.919, 1367.764)" fill="#70ea78" font-size="12" font-family="UniversLTPro-BoldExt, Univers LT Pro" font-weight="700"><tspan x="0" y="0">B</tspan></text>
    <text id="E-3" data-name="E" transform="matrix(0.995, -0.098, 0.098, 0.995, 473.895, 1366.96)" fill="#70ea78" font-size="12" font-family="UniversLTPro-BoldExt, Univers LT Pro" font-weight="700"><tspan x="0" y="0">E</tspan></text>
    <text id="N-3" data-name="N" transform="translate(483.121 1366.041) rotate(-7.159)" fill="#70ea78" font-size="12" font-family="UniversLTPro-BoldExt, Univers LT Pro" font-weight="700"><tspan x="0" y="0">N</tspan></text>
    <text id="D" transform="translate(494.898 1364.53) rotate(-9.255)" fill="#70ea78" font-size="12" font-family="UniversLTPro-BoldExt, Univers LT Pro" font-weight="700"><tspan x="0" y="0">D</tspan></text>
    <text id="U-2" data-name="U" transform="translate(505.761 1362.759) rotate(-10.856)" fill="#70ea78" font-size="12" font-family="UniversLTPro-BoldExt, Univers LT Pro" font-weight="700"><tspan x="0" y="0">U</tspan></text>
    <text id="M" transform="translate(516.581 1360.732) rotate(-13.023)" fill="#70ea78" font-size="12" font-family="UniversLTPro-BoldExt, Univers LT Pro" font-weight="700"><tspan x="0" y="0">M</tspan></text>
    <text id="_3" data-name=" " transform="matrix(0.967, -0.253, 0.253, 0.967, 531.519, 1357.235)" fill="#70ea78" font-size="12" font-family="UniversLTPro-BoldExt, Univers LT Pro" font-weight="700"><tspan x="0" y="0"> </tspan></text>
    <text id="E-4" data-name="E" transform="matrix(0.965, -0.263, 0.263, 0.965, 536.284, 1355.998)" fill="#70ea78" font-size="12" font-family="UniversLTPro-BoldExt, Univers LT Pro" font-weight="700"><tspan x="0" y="0">E</tspan></text>
    <text id="S" transform="translate(545.225 1353.547) rotate(-16.895)" fill="#70ea78" font-size="12" font-family="UniversLTPro-BoldExt, Univers LT Pro" font-weight="700"><tspan x="0" y="0">S</tspan></text>
    <text id="T-2" data-name="T" transform="translate(554.92 1350.581) rotate(-18.016)" fill="#70ea78" font-size="12" font-family="UniversLTPro-BoldExt, Univers LT Pro" font-weight="700"><tspan x="0" y="0">T</tspan></text>
    <text id="_." data-name="." transform="translate(562.481 1348.099) rotate(-19.142)" fill="#70ea78" font-size="12" font-family="UniversLTPro-BoldExt, Univers LT Pro" font-weight="700"><tspan x="0" y="0">.</tspan></text>
    <text id="_4" data-name=" " transform="translate(567.132 1346.485) rotate(-19.707)" fill="#70ea78" font-size="12" font-family="UniversLTPro-BoldExt, Univers LT Pro" font-weight="700"><tspan x="0" y="0"> </tspan></text>
    <text id="P" transform="translate(571.775 1344.847) rotate(-20.839)" fill="#70ea78" font-size="12" font-family="UniversLTPro-BoldExt, Univers LT Pro" font-weight="700"><tspan x="0" y="0">P</tspan></text>
    <text id="H" transform="translate(581.245 1341.229) rotate(-21.975)" fill="#70ea78" font-size="12" font-family="UniversLTPro-BoldExt, Univers LT Pro" font-weight="700"><tspan x="0" y="0">H</tspan></text>
    <text id="A" transform="translate(591.44 1337.082) rotate(-23.68)" fill="#70ea78" font-size="12" font-family="UniversLTPro-BoldExt, Univers LT Pro" font-weight="700"><tspan x="0" y="0">A</tspan></text>
    <text id="S-2" data-name="S" transform="translate(602.315 1332.315) rotate(-25.388)" fill="#70ea78" font-size="12" font-family="UniversLTPro-BoldExt, Univers LT Pro" font-weight="700"><tspan x="0" y="0">S</tspan></text>
    <text id="E-5" data-name="E" transform="translate(611.484 1327.989) rotate(-26.526)" fill="#70ea78" font-size="12" font-family="UniversLTPro-BoldExt, Univers LT Pro" font-weight="700"><tspan x="0" y="0">E</tspan></text>
    <text id="L" transform="matrix(0.886, -0.464, 0.464, 0.886, 619.788, 1323.864)" fill="#70ea78" font-size="12" font-family="UniversLTPro-BoldExt, Univers LT Pro" font-weight="700"><tspan x="0" y="0">L</tspan></text>
    <text id="L-2" data-name="L" transform="translate(627.248 1319.995) rotate(-28.797)" fill="#70ea78" font-size="12" font-family="UniversLTPro-BoldExt, Univers LT Pro" font-weight="700"><tspan x="0" y="0">L</tspan></text>
    <text id="U-3" data-name="U" transform="translate(634.64 1315.996) rotate(-29.928)" fill="#70ea78" font-size="12" font-family="UniversLTPro-BoldExt, Univers LT Pro" font-weight="700"><tspan x="0" y="0">U</tspan></text>
    <text id="S-3" data-name="S" transform="translate(644.193 1310.53) rotate(-31.054)" fill="#70ea78" font-size="12" font-family="UniversLTPro-BoldExt, Univers LT Pro" font-weight="700"><tspan x="0" y="0">S</tspan></text>
    <text id="_5" data-name=" " transform="translate(652.872 1305.289) rotate(-31.616)" fill="#70ea78" font-size="12" font-family="UniversLTPro-BoldExt, Univers LT Pro" font-weight="700"><tspan x="0" y="0"> </tspan></text>
    <text id="A-2" data-name="A" transform="translate(656.83 1302.887) rotate(-32.735)" fill="#70ea78" font-size="12" font-family="UniversLTPro-BoldExt, Univers LT Pro" font-weight="700"><tspan x="0" y="0">A</tspan></text>
    <text id="T-3" data-name="T" transform="matrix(0.831, -0.557, 0.557, 0.831, 666.095, 1296.946)" fill="#70ea78" font-size="12" font-family="UniversLTPro-BoldExt, Univers LT Pro" font-weight="700"><tspan x="0" y="0">T</tspan></text>
    <text id="_6" data-name=" " transform="translate(673.78 1291.781) rotate(-34.401)" fill="#70ea78" font-size="12" font-family="UniversLTPro-BoldExt, Univers LT Pro" font-weight="700"><tspan x="0" y="0"> </tspan></text>
    <text id="E-6" data-name="E" transform="translate(677.864 1289.031) rotate(-35.503)" fill="#70ea78" font-size="12" font-family="UniversLTPro-BoldExt, Univers LT Pro" font-weight="700"><tspan x="0" y="0">E</tspan></text>
    <text id="X" transform="matrix(0.808, -0.589, 0.589, 0.808, 685.414, 1283.651)" fill="#70ea78" font-size="12" font-family="UniversLTPro-BoldExt, Univers LT Pro" font-weight="700"><tspan x="0" y="0">X</tspan></text>
    <text id="_7" data-name=" " transform="translate(694.288 1277.141) rotate(-37.332)" fill="#70ea78" font-size="12" font-family="UniversLTPro-BoldExt, Univers LT Pro" font-weight="700"><tspan x="0" y="0"> </tspan></text>
    <text id="N-4" data-name="N" transform="translate(698.215 1274.172) rotate(-38.2)" fill="#70ea78" font-size="12" font-family="UniversLTPro-BoldExt, Univers LT Pro" font-weight="700"><tspan x="0" y="0">N</tspan></text>
    <text id="E-7" data-name="E" transform="matrix(0.765, -0.644, 0.644, 0.765, 707.519, 1266.796)" fill="#70ea78" font-size="12" font-family="UniversLTPro-BoldExt, Univers LT Pro" font-weight="700"><tspan x="0" y="0">E</tspan></text>
    <text id="C-2" data-name="C" transform="translate(714.633 1260.849) rotate(-42.168)" fill="#70ea78" font-size="12" font-family="UniversLTPro-BoldExt, Univers LT Pro" font-weight="700"><tspan x="0" y="0">C</tspan></text>
    <text id="_8" data-name=" " transform="translate(722.778 1253.446) rotate(-43.81)" fill="#70ea78" font-size="12" font-family="UniversLTPro-BoldExt, Univers LT Pro" font-weight="700"><tspan x="0" y="0"> </tspan></text>
    <text id="E-8" data-name="E" transform="matrix(0.708, -0.706, 0.706, 0.708, 726.343, 1250.052)" fill="#70ea78" font-size="12" font-family="UniversLTPro-BoldExt, Univers LT Pro" font-weight="700"><tspan x="0" y="0">E</tspan></text>
    <text id="X-2" data-name="X" transform="translate(732.888 1243.484) rotate(-47.168)" fill="#70ea78" font-size="12" font-family="UniversLTPro-BoldExt, Univers LT Pro" font-weight="700"><tspan x="0" y="0">X</tspan></text>
    <text id="_9" data-name=" " transform="translate(740.319 1235.367) rotate(-49.33)" fill="#70ea78" font-size="12" font-family="UniversLTPro-BoldExt, Univers LT Pro" font-weight="700"><tspan x="0" y="0"> </tspan></text>
    <text id="H-2" data-name="H" transform="matrix(0.632, -0.775, 0.775, 0.632, 743.564, 1231.663)" fill="#70ea78" font-size="12" font-family="UniversLTPro-BoldExt, Univers LT Pro" font-weight="700"><tspan x="0" y="0">H</tspan></text>
    <text id="E-9" data-name="E" transform="matrix(0.607, -0.795, 0.795, 0.607, 750.496, 1223.115)" fill="#70ea78" font-size="12" font-family="UniversLTPro-BoldExt, Univers LT Pro" font-weight="700"><tspan x="0" y="0">E</tspan></text>
    <text id="N-5" data-name="N" transform="translate(756.119 1215.743) rotate(-54.103)" fill="#70ea78" font-size="12" font-family="UniversLTPro-BoldExt, Univers LT Pro" font-weight="700"><tspan x="0" y="0">N</tspan></text>
    <text id="D-2" data-name="D" transform="translate(763.062 1206.111) rotate(-55.452)" fill="#70ea78" font-size="12" font-family="UniversLTPro-BoldExt, Univers LT Pro" font-weight="700"><tspan x="0" y="0">D</tspan></text>
    <text id="R" transform="matrix(0.557, -0.83, 0.83, 0.557, 769.302, 1197.046)" fill="#70ea78" font-size="12" font-family="UniversLTPro-BoldExt, Univers LT Pro" font-weight="700"><tspan x="0" y="0">R</tspan></text>
    <text id="E-10" data-name="E" transform="matrix(0.553, -0.833, 0.833, 0.553, 775.429, 1187.903)" fill="#70ea78" font-size="12" font-family="UniversLTPro-BoldExt, Univers LT Pro" font-weight="700"><tspan x="0" y="0">E</tspan></text>
    <text id="R-2" data-name="R" transform="matrix(0.551, -0.835, 0.835, 0.551, 780.552, 1180.176)" fill="#70ea78" font-size="12" font-family="UniversLTPro-BoldExt, Univers LT Pro" font-weight="700"><tspan x="0" y="0">R</tspan></text>
    <text id="I-2" data-name="I" transform="matrix(0.551, -0.834, 0.834, 0.551, 786.615, 1170.992)" fill="#70ea78" font-size="12" font-family="UniversLTPro-BoldExt, Univers LT Pro" font-weight="700"><tspan x="0" y="0">I</tspan></text>
    <text id="T-4" data-name="T" transform="translate(789.329 1166.885) rotate(-56.459)" fill="#70ea78" font-size="12" font-family="UniversLTPro-BoldExt, Univers LT Pro" font-weight="700"><tspan x="0" y="0">T</tspan></text>
    <text id="_10" data-name=" " transform="matrix(0.556, -0.831, 0.831, 0.556, 794.448, 1159.169)" fill="#70ea78" font-size="12" font-family="UniversLTPro-BoldExt, Univers LT Pro" font-weight="700"><tspan x="0" y="0"> </tspan></text>
    <text id="S-4" data-name="S" transform="matrix(0.558, -0.83, 0.83, 0.558, 797.176, 1155.071)" fill="#70ea78" font-size="12" font-family="UniversLTPro-BoldExt, Univers LT Pro" font-weight="700"><tspan x="0" y="0">S</tspan></text>
    <text id="O" transform="translate(802.823 1146.651) rotate(-55.626)" fill="#70ea78" font-size="12" font-family="UniversLTPro-BoldExt, Univers LT Pro" font-weight="700"><tspan x="0" y="0">O</tspan></text>
    <text id="D-3" data-name="D" transform="matrix(0.581, -0.814, 0.814, 0.581, 809.527, 1136.837)" fill="#70ea78" font-size="12" font-family="UniversLTPro-BoldExt, Univers LT Pro" font-weight="700"><tspan x="0" y="0">D</tspan></text>
    <text id="A-3" data-name="A" transform="matrix(0.598, -0.801, 0.801, 0.598, 815.66, 1128.226)" fill="#70ea78" font-size="12" font-family="UniversLTPro-BoldExt, Univers LT Pro" font-weight="700"><tspan x="0" y="0">A</tspan></text>
    <text id="L-3" data-name="L" transform="matrix(0.617, -0.787, 0.787, 0.617, 822.788, 1118.731)" fill="#70ea78" font-size="12" font-family="UniversLTPro-BoldExt, Univers LT Pro" font-weight="700"><tspan x="0" y="0">L</tspan></text>
    <text id="E-11" data-name="E" transform="matrix(0.638, -0.77, 0.77, 0.638, 827.975, 1112.118)" fill="#70ea78" font-size="12" font-family="UniversLTPro-BoldExt, Univers LT Pro" font-weight="700"><tspan x="0" y="0">E</tspan></text>
    <text id="S-5" data-name="S" transform="matrix(0.661, -0.751, 0.751, 0.661, 833.885, 1104.974)" fill="#70ea78" font-size="12" font-family="UniversLTPro-BoldExt, Univers LT Pro" font-weight="700"><tspan x="0" y="0">S</tspan></text>
    <text id="_11" data-name=" " transform="translate(840.618 1097.394) rotate(-47.238)" fill="#70ea78" font-size="12" font-family="UniversLTPro-BoldExt, Univers LT Pro" font-weight="700"><tspan x="0" y="0"> </tspan></text>
    <text id="T-5" data-name="T" transform="matrix(0.698, -0.716, 0.716, 0.698, 843.658, 1094.09)" fill="#70ea78" font-size="12" font-family="UniversLTPro-BoldExt, Univers LT Pro" font-weight="700"><tspan x="0" y="0">T</tspan></text>
    <text id="E-12" data-name="E" transform="matrix(0.732, -0.681, 0.681, 0.732, 850.127, 1087.463)" fill="#70ea78" font-size="12" font-family="UniversLTPro-BoldExt, Univers LT Pro" font-weight="700"><tspan x="0" y="0">E</tspan></text>
    <text id="M-2" data-name="M" transform="translate(856.827 1081.042) rotate(-39.074)" fill="#70ea78" font-size="12" font-family="UniversLTPro-BoldExt, Univers LT Pro" font-weight="700"><tspan x="0" y="0">M</tspan></text>
    <text id="P-2" data-name="P" transform="translate(868.772 1071.401) rotate(-33.797)" fill="#70ea78" font-size="12" font-family="UniversLTPro-BoldExt, Univers LT Pro" font-weight="700"><tspan x="0" y="0">P</tspan></text>
    <text id="O-2" data-name="O" transform="matrix(0.878, -0.478, 0.478, 0.878, 877.138, 1065.65)" fill="#70ea78" font-size="12" font-family="UniversLTPro-BoldExt, Univers LT Pro" font-weight="700"><tspan x="0" y="0">O</tspan></text>
    <text id="R-3" data-name="R" transform="translate(887.582 1059.959) rotate(-22.612)" fill="#70ea78" font-size="12" font-family="UniversLTPro-BoldExt, Univers LT Pro" font-weight="700"><tspan x="0" y="0">R</tspan></text>
    <text id="_12" data-name=" " transform="translate(897.8 1055.871) rotate(-17.174)" fill="#70ea78" font-size="12" font-family="UniversLTPro-BoldExt, Univers LT Pro" font-weight="700"><tspan x="0" y="0"> </tspan></text>
    <text id="S-6" data-name="S" transform="matrix(0.98, -0.197, 0.197, 0.98, 902.467, 1054.248)" fill="#70ea78" font-size="12" font-family="UniversLTPro-BoldExt, Univers LT Pro" font-weight="700"><tspan x="0" y="0">S</tspan></text>
    <text id="I-3" data-name="I" transform="translate(912.425 1052.346) rotate(-6.513)" fill="#70ea78" font-size="12" font-family="UniversLTPro-BoldExt, Univers LT Pro" font-weight="700"><tspan x="0" y="0">I</tspan></text>
    <text id="T-6" data-name="T" transform="translate(917.315 1051.656) rotate(-0.328)" fill="#70ea78" font-size="12" font-family="UniversLTPro-BoldExt, Univers LT Pro" font-weight="700"><tspan x="0" y="0">T</tspan></text>
    <text id="_13" data-name=" " transform="matrix(0.997, 0.081, -0.081, 0.997, 926.576, 1051.667)" fill="#70ea78" font-size="12" font-family="UniversLTPro-BoldExt, Univers LT Pro" font-weight="700"><tspan x="0" y="0"> </tspan></text>
    <text id="A-4" data-name="A" transform="matrix(0.983, 0.185, -0.185, 0.983, 931.226, 1051.829)" fill="#70ea78" font-size="12" font-family="UniversLTPro-BoldExt, Univers LT Pro" font-weight="700"><tspan x="0" y="0">A</tspan></text>
    <text id="M-3" data-name="M" transform="translate(942.969 1053.858) rotate(19.732)" fill="#70ea78" font-size="12" font-family="UniversLTPro-BoldExt, Univers LT Pro" font-weight="700"><tspan x="0" y="0">M</tspan></text>
    <text id="E-13" data-name="E" transform="translate(957.355 1059.197) rotate(25.835)" fill="#70ea78" font-size="12" font-family="UniversLTPro-BoldExt, Univers LT Pro" font-weight="700"><tspan x="0" y="0">E</tspan></text>
    <text id="T-7" data-name="T" transform="matrix(0.862, 0.506, -0.506, 0.862, 965.693, 1063.259)" fill="#70ea78" font-size="12" font-family="UniversLTPro-BoldExt, Univers LT Pro" font-weight="700"><tspan x="0" y="0">T</tspan></text>
    <text id="_14" data-name=" " transform="translate(973.647 1067.999) rotate(32.934)" fill="#70ea78" font-size="12" font-family="UniversLTPro-BoldExt, Univers LT Pro" font-weight="700"><tspan x="0" y="0"> </tspan></text>
    <text id="L-4" data-name="L" transform="translate(977.78 1070.674) rotate(35.292)" fill="#70ea78" font-size="12" font-family="UniversLTPro-BoldExt, Univers LT Pro" font-weight="700"><tspan x="0" y="0">L</tspan></text>
    <text id="I-4" data-name="I" transform="translate(984.6 1075.584) rotate(37.494)" fill="#70ea78" font-size="12" font-family="UniversLTPro-BoldExt, Univers LT Pro" font-weight="700"><tspan x="0" y="0">I</tspan></text>
    <text id="G-2" data-name="G" transform="matrix(0.764, 0.645, -0.645, 0.764, 988.546, 1078.533)" fill="#70ea78" font-size="12" font-family="UniversLTPro-BoldExt, Univers LT Pro" font-weight="700"><tspan x="0" y="0">G</tspan></text>
    <text id="U-4" data-name="U" transform="matrix(0.729, 0.685, -0.685, 0.729, 997.628, 1086.186)" fill="#70ea78" font-size="12" font-family="UniversLTPro-BoldExt, Univers LT Pro" font-weight="700"><tspan x="0" y="0">U</tspan></text>
    <text id="L-5" data-name="L" transform="translate(1005.638 1093.734) rotate(44.892)" fill="#70ea78" font-size="12" font-family="UniversLTPro-BoldExt, Univers LT Pro" font-weight="700"><tspan x="0" y="0">L</tspan></text>
    <text id="A-5" data-name="A" transform="matrix(0.683, 0.731, -0.731, 0.683, 1011.608, 1099.65)" fill="#70ea78" font-size="12" font-family="UniversLTPro-BoldExt, Univers LT Pro" font-weight="700"><tspan x="0" y="0">A</tspan></text>
    <text id="_.-2" data-name="." transform="translate(1019.678 1108.358) rotate(48.662)" fill="#70ea78" font-size="12" font-family="UniversLTPro-BoldExt, Univers LT Pro" font-weight="700"><tspan x="0" y="0">.</tspan></text>
    <text id="_15" data-name=" " transform="matrix(0.645, 0.764, -0.764, 0.645, 1022.935, 1112.05)" fill="#70ea78" font-size="12" font-family="UniversLTPro-BoldExt, Univers LT Pro" font-weight="700"><tspan x="0" y="0"> </tspan></text>
    <text id="P-3" data-name="P" transform="translate(1026.161 1115.771) rotate(51.529)" fill="#70ea78" font-size="12" font-family="UniversLTPro-BoldExt, Univers LT Pro" font-weight="700"><tspan x="0" y="0">P</tspan></text>
    <text id="H-3" data-name="H" transform="matrix(0.59, 0.807, -0.807, 0.59, 1032.504, 1123.683)" fill="#70ea78" font-size="12" font-family="UniversLTPro-BoldExt, Univers LT Pro" font-weight="700"><tspan x="0" y="0">H</tspan></text>
    <text id="A-6" data-name="A" transform="matrix(0.557, 0.83, -0.83, 0.557, 1039.005, 1132.564)" fill="#70ea78" font-size="12" font-family="UniversLTPro-BoldExt, Univers LT Pro" font-weight="700"><tspan x="0" y="0">A</tspan></text>
    <text id="S-7" data-name="S" transform="translate(1045.593 1142.444) rotate(59.009)" fill="#70ea78" font-size="12" font-family="UniversLTPro-BoldExt, Univers LT Pro" font-weight="700"><tspan x="0" y="0">S</tspan></text>
    <text id="E-14" data-name="E" transform="translate(1050.811 1151.138) rotate(61.263)" fill="#70ea78" font-size="12" font-family="UniversLTPro-BoldExt, Univers LT Pro" font-weight="700"><tspan x="0" y="0">E</tspan></text>
    <text id="L-6" data-name="L" transform="matrix(0.447, 0.895, -0.895, 0.447, 1055.265, 1159.27)" fill="#70ea78" font-size="12" font-family="UniversLTPro-BoldExt, Univers LT Pro" font-weight="700"><tspan x="0" y="0">L</tspan></text>
    <text id="L-7" data-name="L" transform="translate(1059.036 1166.781) rotate(65.619)" fill="#70ea78" font-size="12" font-family="UniversLTPro-BoldExt, Univers LT Pro" font-weight="700"><tspan x="0" y="0">L</tspan></text>
    <text id="U-5" data-name="U" transform="translate(1062.536 1174.423) rotate(67.691)" fill="#70ea78" font-size="12" font-family="UniversLTPro-BoldExt, Univers LT Pro" font-weight="700"><tspan x="0" y="0">U</tspan></text>
    <text id="S-8" data-name="S" transform="translate(1066.698 1184.612) rotate(70.158)" fill="#70ea78" font-size="12" font-family="UniversLTPro-BoldExt, Univers LT Pro" font-weight="700"><tspan x="0" y="0">S</tspan></text>
    <text id="_16" data-name=" " transform="translate(1070.107 1194.161) rotate(72.018)" fill="#70ea78" font-size="12" font-family="UniversLTPro-BoldExt, Univers LT Pro" font-weight="700"><tspan x="0" y="0"> </tspan></text>
    <text id="A-7" data-name="A" transform="translate(1071.611 1198.542) rotate(73.765)" fill="#70ea78" font-size="12" font-family="UniversLTPro-BoldExt, Univers LT Pro" font-weight="700"><tspan x="0" y="0">A</tspan></text>
    <text id="_17" data-name=" " transform="matrix(0.252, 0.968, -0.968, 0.252, 1074.896, 1209.951)" fill="#70ea78" font-size="12" font-family="UniversLTPro-BoldExt, Univers LT Pro" font-weight="700"><tspan x="0" y="0"> </tspan></text>
    <text id="T-8" data-name="T" transform="translate(1076.053 1214.289) rotate(76.52)" fill="#70ea78" font-size="12" font-family="UniversLTPro-BoldExt, Univers LT Pro" font-weight="700"><tspan x="0" y="0">T</tspan></text>
    <text id="E-15" data-name="E" transform="translate(1078.203 1223.295) rotate(78.231)" fill="#70ea78" font-size="12" font-family="UniversLTPro-BoldExt, Univers LT Pro" font-weight="700"><tspan x="0" y="0">E</tspan></text>
    <text id="M-4" data-name="M" transform="matrix(0.17, 0.985, -0.985, 0.17, 1080.154, 1232.362)" fill="#70ea78" font-size="12" font-family="UniversLTPro-BoldExt, Univers LT Pro" font-weight="700"><tspan x="0" y="0">M</tspan></text>
    <text id="U-6" data-name="U" transform="translate(1082.739 1247.485) rotate(81.724)" fill="#70ea78" font-size="12" font-family="UniversLTPro-BoldExt, Univers LT Pro" font-weight="700"><tspan x="0" y="0">U</tspan></text>
    <text id="S-9" data-name="S" transform="translate(1084.32 1258.376) rotate(82.569)" fill="#70ea78" font-size="12" font-family="UniversLTPro-BoldExt, Univers LT Pro" font-weight="700"><tspan x="0" y="0">S</tspan></text>
    <text id="_18" data-name=" " transform="matrix(0.124, 0.992, -0.992, 0.124, 1085.623, 1268.431)" fill="#70ea78" font-size="12" font-family="UniversLTPro-BoldExt, Univers LT Pro" font-weight="700"><tspan x="0" y="0"> </tspan></text>
    <text id="M-5" data-name="M" transform="translate(1086.229 1273.316) rotate(82.971)" fill="#70ea78" font-size="12" font-family="UniversLTPro-BoldExt, Univers LT Pro" font-weight="700"><tspan x="0" y="0">M</tspan></text>
    <text id="A-8" data-name="A" transform="translate(1088.092 1288.545) rotate(82.093)" fill="#70ea78" font-size="12" font-family="UniversLTPro-BoldExt, Univers LT Pro" font-weight="700"><tspan x="0" y="0">A</tspan></text>
    <text id="G-3" data-name="G" transform="translate(1089.669 1300.018) rotate(80.446)" fill="#70ea78" font-size="12" font-family="UniversLTPro-BoldExt, Univers LT Pro" font-weight="700"><tspan x="0" y="0">G</tspan></text>
    <text id="N-6" data-name="N" transform="translate(1091.612 1311.736) rotate(76.838)" fill="#70ea78" font-size="12" font-family="UniversLTPro-BoldExt, Univers LT Pro" font-weight="700"><tspan x="0" y="0">N</tspan></text>
    <text id="A-9" data-name="A" transform="matrix(0.322, 0.947, -0.947, 0.322, 1094.241, 1323.328)" fill="#70ea78" font-size="12" font-family="UniversLTPro-BoldExt, Univers LT Pro" font-weight="700"><tspan x="0" y="0">A</tspan></text>
    <text id="_.-3" data-name="." transform="translate(1098.202 1334.52) rotate(66.173)" fill="#70ea78" font-size="12" font-family="UniversLTPro-BoldExt, Univers LT Pro" font-weight="700"><tspan x="0" y="0">.</tspan></text>
    <text id="_19" data-name=" " transform="translate(1100.205 1339.018) rotate(63.066)" fill="#70ea78" font-size="12" font-family="UniversLTPro-BoldExt, Univers LT Pro" font-weight="700"><tspan x="0" y="0"> </tspan></text>
    <text id="V" transform="translate(1102.143 1343.076) rotate(59.056)" fill="#70ea78" font-size="12" font-family="UniversLTPro-BoldExt, Univers LT Pro" font-weight="700"><tspan x="0" y="0">V</tspan></text>
    <text id="E-16" data-name="E" transform="matrix(0.575, 0.818, -0.818, 0.575, 1107.828, 1352.503)" fill="#70ea78" font-size="12" font-family="UniversLTPro-BoldExt, Univers LT Pro" font-weight="700"><tspan x="0" y="0">E</tspan></text>
    <text id="S-10" data-name="S" transform="matrix(0.61, 0.792, -0.792, 0.61, 1113.143, 1360.102)" fill="#70ea78" font-size="12" font-family="UniversLTPro-BoldExt, Univers LT Pro" font-weight="700"><tspan x="0" y="0">S</tspan></text>
    <text id="T-9" data-name="T" transform="translate(1119.334 1368.13) rotate(50.801)" fill="#70ea78" font-size="12" font-family="UniversLTPro-BoldExt, Univers LT Pro" font-weight="700"><tspan x="0" y="0">T</tspan></text>
    <text id="I-5" data-name="I" transform="translate(1125.194 1375.3) rotate(50.196)" fill="#70ea78" font-size="12" font-family="UniversLTPro-BoldExt, Univers LT Pro" font-weight="700"><tspan x="0" y="0">I</tspan></text>
    <text id="B-3" data-name="B" transform="translate(1128.344 1379.083) rotate(50.009)" fill="#70ea78" font-size="12" font-family="UniversLTPro-BoldExt, Univers LT Pro" font-weight="700"><tspan x="0" y="0">B</tspan></text>
    <text id="U-7" data-name="U" transform="matrix(0.636, 0.772, -0.772, 0.636, 1135.432, 1387.502)" fill="#70ea78" font-size="12" font-family="UniversLTPro-BoldExt, Univers LT Pro" font-weight="700"><tspan x="0" y="0">U</tspan></text>
    <text id="L-8" data-name="L" transform="translate(1142.429 1395.997) rotate(51.55)" fill="#70ea78" font-size="12" font-family="UniversLTPro-BoldExt, Univers LT Pro" font-weight="700"><tspan x="0" y="0">L</tspan></text>
    <text id="U-8" data-name="U" transform="translate(1147.669 1402.568) rotate(53.088)" fill="#70ea78" font-size="12" font-family="UniversLTPro-BoldExt, Univers LT Pro" font-weight="700"><tspan x="0" y="0">U</tspan></text>
    <text id="M-6" data-name="M" transform="translate(1154.344 1411.326) rotate(56.321)" fill="#70ea78" font-size="12" font-family="UniversLTPro-BoldExt, Univers LT Pro" font-weight="700"><tspan x="0" y="0">M</tspan></text>
    <text id="_20" data-name=" " transform="translate(1162.754 1424.157) rotate(59.061)" fill="#70ea78" font-size="12" font-family="UniversLTPro-BoldExt, Univers LT Pro" font-weight="700"><tspan x="0" y="0"> </tspan></text>
    <text id="S-11" data-name="S" transform="translate(1165.338 1428.351) rotate(61.676)" fill="#70ea78" font-size="12" font-family="UniversLTPro-BoldExt, Univers LT Pro" font-weight="700"><tspan x="0" y="0">S</tspan></text>
    <text id="_21" data-name=" " transform="translate(1170.094 1437.304) rotate(63.965)" fill="#70ea78" font-size="12" font-family="UniversLTPro-BoldExt, Univers LT Pro" font-weight="700"><tspan x="0" y="0"> </tspan></text>
    <text id="M-7" data-name="M" transform="matrix(0.369, 0.929, -0.929, 0.369, 1172.445, 1441.649)" fill="#70ea78" font-size="12" font-family="UniversLTPro-BoldExt, Univers LT Pro" font-weight="700"><tspan x="0" y="0">M</tspan></text>
    <text id="A-10" data-name="A" transform="translate(1178.043 1455.938) rotate(73.097)" fill="#70ea78" font-size="12" font-family="UniversLTPro-BoldExt, Univers LT Pro" font-weight="700"><tspan x="0" y="0">A</tspan></text>
    <text id="G-4" data-name="G" transform="translate(1181.398 1467.028) rotate(78.095)" fill="#70ea78" font-size="12" font-family="UniversLTPro-BoldExt, Univers LT Pro" font-weight="700"><tspan x="0" y="0">G</tspan></text>
    <text id="N-7" data-name="N" transform="matrix(0.131, 0.991, -0.991, 0.131, 1183.836, 1478.653)" fill="#70ea78" font-size="12" font-family="UniversLTPro-BoldExt, Univers LT Pro" font-weight="700"><tspan x="0" y="0">N</tspan></text>
    <text id="A-11" data-name="A" transform="matrix(0.056, 0.998, -0.998, 0.056, 1185.354, 1490.433)" fill="#70ea78" font-size="12" font-family="UniversLTPro-BoldExt, Univers LT Pro" font-weight="700"><tspan x="0" y="0">A</tspan></text>
    <text id="_.-4" data-name="." transform="translate(1185.899 1502.292) rotate(89.649)" fill="#70ea78" font-size="12" font-family="UniversLTPro-BoldExt, Univers LT Pro" font-weight="700"><tspan x="0" y="0">.</tspan></text>
    <text id="_22" data-name=" " transform="translate(1185.931 1507.215) rotate(91.78)" fill="#70ea78" font-size="12" font-family="UniversLTPro-BoldExt, Univers LT Pro" font-weight="700"><tspan x="0" y="0"> </tspan></text>
    <text id="V-2" data-name="V" transform="matrix(-0.069, 0.998, -0.998, -0.069, 1185.857, 1511.707)" fill="#70ea78" font-size="12" font-family="UniversLTPro-BoldExt, Univers LT Pro" font-weight="700"><tspan x="0" y="0">V</tspan></text>
    <text id="E-17" data-name="E" transform="translate(1185.02 1522.681) rotate(97.666)" fill="#70ea78" font-size="12" font-family="UniversLTPro-BoldExt, Univers LT Pro" font-weight="700"><tspan x="0" y="0">E</tspan></text>
    <text id="S-12" data-name="S" transform="translate(1183.799 1531.878) rotate(102.205)" fill="#70ea78" font-size="12" font-family="UniversLTPro-BoldExt, Univers LT Pro" font-weight="700"><tspan x="0" y="0">S</tspan></text>
    <text id="T-10" data-name="T" transform="translate(1181.682 1541.797) rotate(106.012)" fill="#70ea78" font-size="12" font-family="UniversLTPro-BoldExt, Univers LT Pro" font-weight="700"><tspan x="0" y="0">T</tspan></text>
    <text id="I-6" data-name="I" transform="translate(1179.098 1550.689) rotate(109.04)" fill="#70ea78" font-size="12" font-family="UniversLTPro-BoldExt, Univers LT Pro" font-weight="700"><tspan x="0" y="0">I</tspan></text>
    <text id="B-4" data-name="B" transform="translate(1177.575 1555.375) rotate(112.031)" fill="#70ea78" font-size="12" font-family="UniversLTPro-BoldExt, Univers LT Pro" font-weight="700"><tspan x="0" y="0">B</tspan></text>
    <text id="U-9" data-name="U" transform="matrix(-0.445, 0.896, -0.896, -0.445, 1173.413, 1565.567)" fill="#70ea78" font-size="12" font-family="UniversLTPro-BoldExt, Univers LT Pro" font-weight="700"><tspan x="0" y="0">U</tspan></text>
    <text id="L-9" data-name="L" transform="translate(1168.455 1575.396) rotate(120.567)" fill="#70ea78" font-size="12" font-family="UniversLTPro-BoldExt, Univers LT Pro" font-weight="700"><tspan x="0" y="0">L</tspan></text>
    <text id="U-10" data-name="U" transform="translate(1164.237 1582.671) rotate(124.484)" fill="#70ea78" font-size="12" font-family="UniversLTPro-BoldExt, Univers LT Pro" font-weight="700"><tspan x="0" y="0">U</tspan></text>
    <text id="M-8" data-name="M" transform="matrix(-0.625, 0.781, -0.781, -0.625, 1158.07, 1591.797)" fill="#70ea78" font-size="12" font-family="UniversLTPro-BoldExt, Univers LT Pro" font-weight="700"><tspan x="0" y="0">M</tspan></text>
  </g>
</svg>
