<svg xmlns="http://www.w3.org/2000/svg" width="1069.01" height="354.823" viewBox="0 0 1069.01 354.823">
  <g id="Group_123" data-name="Group 123" transform="translate(-123.431 -7174.86)">
    <g id="Group_23" data-name="Group 23" transform="translate(908.167 7529.683)">
      <path id="Path_16" data-name="Path 16" d="M0,0A6.375,6.375,0,0,0,6.375-6.375,6.375,6.375,0,0,0,0-12.75,6.375,6.375,0,0,0-6.375-6.375,6.375,6.375,0,0,0,0,0" fill="#ebe8d9"/>
    </g>
    <text id="N" transform="translate(129.016 7443.703) rotate(-38.358)" fill="#70ea78" font-size="12" font-family="UniversLTPro-BoldExt, Univers LT Pro" font-weight="700"><tspan x="0" y="0">N</tspan></text>
    <text id="U" transform="translate(138.32 7436.328) rotate(-39.086)" fill="#70ea78" font-size="12" font-family="UniversLTPro-BoldExt, Univers LT Pro" font-weight="700"><tspan x="0" y="0">U</tspan></text>
    <text id="N-2" data-name="N" transform="translate(146.866 7429.393) rotate(-39.694)" fill="#70ea78" font-size="12" font-family="UniversLTPro-BoldExt, Univers LT Pro" font-weight="700"><tspan x="0" y="0">N</tspan></text>
    <text id="C" transform="translate(156.003 7421.811) rotate(-40.203)" fill="#70ea78" font-size="12" font-family="UniversLTPro-BoldExt, Univers LT Pro" font-weight="700"><tspan x="0" y="0">C</tspan></text>
    <text id="_" data-name=" " transform="matrix(0.76, -0.65, 0.65, 0.76, 164.402, 7414.698)" fill="#70ea78" font-size="12" font-family="UniversLTPro-BoldExt, Univers LT Pro" font-weight="700"><tspan x="0" y="0"> </tspan></text>
    <text id="E" transform="matrix(0.755, -0.656, 0.656, 0.755, 168.148, 7411.505)" fill="#70ea78" font-size="12" font-family="UniversLTPro-BoldExt, Univers LT Pro" font-weight="700"><tspan x="0" y="0">E</tspan></text>
    <text id="G" transform="translate(175.152 7405.431) rotate(-41.388)" fill="#70ea78" font-size="12" font-family="UniversLTPro-BoldExt, Univers LT Pro" font-weight="700"><tspan x="0" y="0">G</tspan></text>
    <text id="E-2" data-name="E" transform="translate(184.054 7397.574) rotate(-41.962)" fill="#70ea78" font-size="12" font-family="UniversLTPro-BoldExt, Univers LT Pro" font-weight="700"><tspan x="0" y="0">E</tspan></text>
    <text id="T" transform="matrix(0.738, -0.675, 0.675, 0.738, 190.949, 7391.376)" fill="#70ea78" font-size="12" font-family="UniversLTPro-BoldExt, Univers LT Pro" font-weight="700"><tspan x="0" y="0">T</tspan></text>
    <text id="_2" data-name=" " transform="matrix(0.733, -0.68, 0.68, 0.733, 197.777, 7385.123)" fill="#70ea78" font-size="12" font-family="UniversLTPro-BoldExt, Univers LT Pro" font-weight="700"><tspan x="0" y="0"> </tspan></text>
    <text id="B" transform="translate(201.395 7381.785) rotate(-43.29)" fill="#70ea78" font-size="12" font-family="UniversLTPro-BoldExt, Univers LT Pro" font-weight="700"><tspan x="0" y="0">B</tspan></text>
    <text id="I" transform="matrix(0.722, -0.691, 0.691, 0.722, 209.398, 7374.229)" fill="#70ea78" font-size="12" font-family="UniversLTPro-BoldExt, Univers LT Pro" font-weight="700"><tspan x="0" y="0">I</tspan></text>
    <text id="B-2" data-name="B" transform="translate(212.96 7370.832) rotate(-44.228)" fill="#70ea78" font-size="12" font-family="UniversLTPro-BoldExt, Univers LT Pro" font-weight="700"><tspan x="0" y="0">B</tspan></text>
    <text id="E-3" data-name="E" transform="translate(220.839 7363.147) rotate(-44.927)" fill="#70ea78" font-size="12" font-family="UniversLTPro-BoldExt, Univers LT Pro" font-weight="700"><tspan x="0" y="0">E</tspan></text>
    <text id="N-3" data-name="N" transform="matrix(0.699, -0.716, 0.716, 0.699, 227.405, 7356.602)" fill="#70ea78" font-size="12" font-family="UniversLTPro-BoldExt, Univers LT Pro" font-weight="700"><tspan x="0" y="0">N</tspan></text>
    <text id="D" transform="matrix(0.685, -0.729, 0.729, 0.685, 235.699, 7348.106)" fill="#70ea78" font-size="12" font-family="UniversLTPro-BoldExt, Univers LT Pro" font-weight="700"><tspan x="0" y="0">D</tspan></text>
    <text id="U-2" data-name="U" transform="translate(243.247 7340.097) rotate(-47.719)" fill="#70ea78" font-size="12" font-family="UniversLTPro-BoldExt, Univers LT Pro" font-weight="700"><tspan x="0" y="0">U</tspan></text>
    <text id="M" transform="matrix(0.655, -0.756, 0.756, 0.655, 250.676, 7331.975)" fill="#70ea78" font-size="12" font-family="UniversLTPro-BoldExt, Univers LT Pro" font-weight="700"><tspan x="0" y="0">M</tspan></text>
    <text id="_3" data-name=" " transform="translate(260.685 7320.348) rotate(-50.3)" fill="#70ea78" font-size="12" font-family="UniversLTPro-BoldExt, Univers LT Pro" font-weight="700"><tspan x="0" y="0"> </tspan></text>
    <text id="E-4" data-name="E" transform="translate(263.847 7316.574) rotate(-51.323)" fill="#70ea78" font-size="12" font-family="UniversLTPro-BoldExt, Univers LT Pro" font-weight="700"><tspan x="0" y="0">E</tspan></text>
    <text id="S" transform="matrix(0.604, -0.797, 0.797, 0.604, 269.654, 7309.346)" fill="#70ea78" font-size="12" font-family="UniversLTPro-BoldExt, Univers LT Pro" font-weight="700"><tspan x="0" y="0">S</tspan></text>
    <text id="T-2" data-name="T" transform="matrix(0.58, -0.815, 0.815, 0.58, 275.78, 7301.267)" fill="#70ea78" font-size="12" font-family="UniversLTPro-BoldExt, Univers LT Pro" font-weight="700"><tspan x="0" y="0">T</tspan></text>
    <text id="_." data-name="." transform="matrix(0.566, -0.825, 0.825, 0.566, 280.38, 7294.773)" fill="#70ea78" font-size="12" font-family="UniversLTPro-BoldExt, Univers LT Pro" font-weight="700"><tspan x="0" y="0">.</tspan></text>
    <text id="_4" data-name=" " transform="matrix(0.543, -0.84, 0.84, 0.543, 283.164, 7290.713)" fill="#70ea78" font-size="12" font-family="UniversLTPro-BoldExt, Univers LT Pro" font-weight="700"><tspan x="0" y="0"> </tspan></text>
    <text id="P" transform="translate(285.881 7286.606) rotate(-58.878)" fill="#70ea78" font-size="12" font-family="UniversLTPro-BoldExt, Univers LT Pro" font-weight="700"><tspan x="0" y="0">P</tspan></text>
    <text id="H" transform="matrix(0.465, -0.885, 0.885, 0.465, 291.137, 7277.933)" fill="#70ea78" font-size="12" font-family="UniversLTPro-BoldExt, Univers LT Pro" font-weight="700"><tspan x="0" y="0">H</tspan></text>
    <text id="A" transform="matrix(0.383, -0.924, 0.924, 0.383, 296.298, 7268.201)" fill="#70ea78" font-size="12" font-family="UniversLTPro-BoldExt, Univers LT Pro" font-weight="700"><tspan x="0" y="0">A</tspan></text>
    <text id="S-2" data-name="S" transform="translate(300.789 7257.208) rotate(-65.27)" fill="#70ea78" font-size="12" font-family="UniversLTPro-BoldExt, Univers LT Pro" font-weight="700"><tspan x="0" y="0">S</tspan></text>
    <text id="E-5" data-name="E" transform="translate(305.037 7248.001) rotate(-62.456)" fill="#70ea78" font-size="12" font-family="UniversLTPro-BoldExt, Univers LT Pro" font-weight="700"><tspan x="0" y="0">E</tspan></text>
    <text id="L" transform="translate(309.356 7239.796) rotate(-59.211)" fill="#70ea78" font-size="12" font-family="UniversLTPro-BoldExt, Univers LT Pro" font-weight="700"><tspan x="0" y="0">L</tspan></text>
    <text id="L-2" data-name="L" transform="matrix(0.567, -0.824, 0.824, 0.567, 313.685, 7232.591)" fill="#70ea78" font-size="12" font-family="UniversLTPro-BoldExt, Univers LT Pro" font-weight="700"><tspan x="0" y="0">L</tspan></text>
    <text id="U-3" data-name="U" transform="translate(318.412 7225.631) rotate(-50.081)" fill="#70ea78" font-size="12" font-family="UniversLTPro-BoldExt, Univers LT Pro" font-weight="700"><tspan x="0" y="0">U</tspan></text>
    <text id="S-3" data-name="S" transform="matrix(0.722, -0.692, 0.692, 0.722, 325.513, 7217.214)" fill="#70ea78" font-size="12" font-family="UniversLTPro-BoldExt, Univers LT Pro" font-weight="700"><tspan x="0" y="0">S</tspan></text>
    <text id="_5" data-name=" " transform="translate(332.948 7210.323) rotate(-38.123)" fill="#70ea78" font-size="12" font-family="UniversLTPro-BoldExt, Univers LT Pro" font-weight="700"><tspan x="0" y="0"> </tspan></text>
    <text id="A-2" data-name="A" transform="matrix(0.849, -0.529, 0.529, 0.849, 336.51, 7207.339)" fill="#70ea78" font-size="12" font-family="UniversLTPro-BoldExt, Univers LT Pro" font-weight="700"><tspan x="0" y="0">A</tspan></text>
    <text id="T-3" data-name="T" transform="translate(345.927 7201.627) rotate(-23.688)" fill="#70ea78" font-size="12" font-family="UniversLTPro-BoldExt, Univers LT Pro" font-weight="700"><tspan x="0" y="0">T</tspan></text>
    <text id="_6" data-name=" " transform="matrix(0.957, -0.29, 0.29, 0.957, 354.475, 7198.07)" fill="#70ea78" font-size="12" font-family="UniversLTPro-BoldExt, Univers LT Pro" font-weight="700"><tspan x="0" y="0"> </tspan></text>
    <text id="E-6" data-name="E" transform="translate(359.152 7196.462) rotate(-10.052)" fill="#70ea78" font-size="12" font-family="UniversLTPro-BoldExt, Univers LT Pro" font-weight="700"><tspan x="0" y="0">E</tspan></text>
    <text id="X" transform="translate(368.282 7194.783) rotate(-3.47)" fill="#70ea78" font-size="12" font-family="UniversLTPro-BoldExt, Univers LT Pro" font-weight="700"><tspan x="0" y="0">X</tspan></text>
    <text id="_7" data-name=" " transform="matrix(0.999, 0.048, -0.048, 0.999, 379.277, 7194.312)" fill="#70ea78" font-size="12" font-family="UniversLTPro-BoldExt, Univers LT Pro" font-weight="700"><tspan x="0" y="0"> </tspan></text>
    <text id="N-4" data-name="N" transform="translate(384.206 7194.444) rotate(7.048)" fill="#70ea78" font-size="12" font-family="UniversLTPro-BoldExt, Univers LT Pro" font-weight="700"><tspan x="0" y="0">N</tspan></text>
    <text id="E-7" data-name="E" transform="translate(395.987 7195.988) rotate(13.579)" fill="#70ea78" font-size="12" font-family="UniversLTPro-BoldExt, Univers LT Pro" font-weight="700"><tspan x="0" y="0">E</tspan></text>
    <text id="C-2" data-name="C" transform="translate(405.029 7198.071) rotate(17.801)" fill="#70ea78" font-size="12" font-family="UniversLTPro-BoldExt, Univers LT Pro" font-weight="700"><tspan x="0" y="0">C</tspan></text>
    <text id="_8" data-name=" " transform="translate(415.479 7201.525) rotate(22.016)" fill="#70ea78" font-size="12" font-family="UniversLTPro-BoldExt, Univers LT Pro" font-weight="700"><tspan x="0" y="0"> </tspan></text>
    <text id="E-8" data-name="E" transform="translate(420.083 7203.288) rotate(26.419)" fill="#70ea78" font-size="12" font-family="UniversLTPro-BoldExt, Univers LT Pro" font-weight="700"><tspan x="0" y="0">E</tspan></text>
    <text id="X-2" data-name="X" transform="translate(428.413 7207.387) rotate(33.063)" fill="#70ea78" font-size="12" font-family="UniversLTPro-BoldExt, Univers LT Pro" font-weight="700"><tspan x="0" y="0">X</tspan></text>
    <text id="_9" data-name=" " transform="translate(437.541 7213.536) rotate(39.184)" fill="#70ea78" font-size="12" font-family="UniversLTPro-BoldExt, Univers LT Pro" font-weight="700"><tspan x="0" y="0"> </tspan></text>
    <text id="H-2" data-name="H" transform="matrix(0.718, 0.696, -0.696, 0.718, 441.456, 7216.541)" fill="#70ea78" font-size="12" font-family="UniversLTPro-BoldExt, Univers LT Pro" font-weight="700"><tspan x="0" y="0">H</tspan></text>
    <text id="E-9" data-name="E" transform="matrix(0.674, 0.739, -0.739, 0.674, 449.32, 7224.243)" fill="#70ea78" font-size="12" font-family="UniversLTPro-BoldExt, Univers LT Pro" font-weight="700"><tspan x="0" y="0">E</tspan></text>
    <text id="N-5" data-name="N" transform="translate(455.494 7231.161) rotate(46.55)" fill="#70ea78" font-size="12" font-family="UniversLTPro-BoldExt, Univers LT Pro" font-weight="700"><tspan x="0" y="0">N</tspan></text>
    <text id="D-2" data-name="D" transform="matrix(0.787, 0.617, -0.617, 0.787, 463.628, 7239.843)" fill="#70ea78" font-size="12" font-family="UniversLTPro-BoldExt, Univers LT Pro" font-weight="700"><tspan x="0" y="0">D</tspan></text>
    <text id="R" transform="translate(472.339 7246.646) rotate(24.726)" fill="#70ea78" font-size="12" font-family="UniversLTPro-BoldExt, Univers LT Pro" font-weight="700"><tspan x="0" y="0">R</tspan></text>
    <text id="E-10" data-name="E" transform="translate(482.417 7251.135) rotate(12.364)" fill="#70ea78" font-size="12" font-family="UniversLTPro-BoldExt, Univers LT Pro" font-weight="700"><tspan x="0" y="0">E</tspan></text>
    <text id="R-2" data-name="R" transform="translate(491.487 7253.135) rotate(4.262)" fill="#70ea78" font-size="12" font-family="UniversLTPro-BoldExt, Univers LT Pro" font-weight="700"><tspan x="0" y="0">R</tspan></text>
    <text id="I-2" data-name="I" transform="translate(502.472 7253.777) rotate(-1)" fill="#70ea78" font-size="12" font-family="UniversLTPro-BoldExt, Univers LT Pro" font-weight="700"><tspan x="0" y="0">I</tspan></text>
    <text id="T-4" data-name="T" transform="translate(507.397 7253.72) rotate(-4.147)" fill="#70ea78" font-size="12" font-family="UniversLTPro-BoldExt, Univers LT Pro" font-weight="700"><tspan x="0" y="0">T</tspan></text>
    <text id="_10" data-name=" " transform="translate(516.622 7252.926) rotate(-8.265)" fill="#70ea78" font-size="12" font-family="UniversLTPro-BoldExt, Univers LT Pro" font-weight="700"><tspan x="0" y="0"> </tspan></text>
    <text id="S-4" data-name="S" transform="translate(521.51 7252.296) rotate(-12.119)" fill="#70ea78" font-size="12" font-family="UniversLTPro-BoldExt, Univers LT Pro" font-weight="700"><tspan x="0" y="0">S</tspan></text>
    <text id="O" transform="translate(531.427 7250.167) rotate(-16.781)" fill="#70ea78" font-size="12" font-family="UniversLTPro-BoldExt, Univers LT Pro" font-weight="700"><tspan x="0" y="0">O</tspan></text>
    <text id="D-3" data-name="D" transform="translate(542.8 7246.696) rotate(-21.769)" fill="#70ea78" font-size="12" font-family="UniversLTPro-BoldExt, Univers LT Pro" font-weight="700"><tspan x="0" y="0">D</tspan></text>
    <text id="A-3" data-name="A" transform="translate(552.631 7242.8) rotate(-25.066)" fill="#70ea78" font-size="12" font-family="UniversLTPro-BoldExt, Univers LT Pro" font-weight="700"><tspan x="0" y="0">A</tspan></text>
    <text id="L-3" data-name="L" transform="translate(563.361 7237.715) rotate(-27.748)" fill="#70ea78" font-size="12" font-family="UniversLTPro-BoldExt, Univers LT Pro" font-weight="700"><tspan x="0" y="0">L</tspan></text>
    <text id="E-11" data-name="E" transform="translate(570.805 7233.813) rotate(-29.827)" fill="#70ea78" font-size="12" font-family="UniversLTPro-BoldExt, Univers LT Pro" font-weight="700"><tspan x="0" y="0">E</tspan></text>
    <text id="S-5" data-name="S" transform="translate(578.861 7229.223) rotate(-31.31)" fill="#70ea78" font-size="12" font-family="UniversLTPro-BoldExt, Univers LT Pro" font-weight="700"><tspan x="0" y="0">S</tspan></text>
    <text id="_11" data-name=" " transform="translate(587.516 7223.942) rotate(-31.828)" fill="#70ea78" font-size="12" font-family="UniversLTPro-BoldExt, Univers LT Pro" font-weight="700"><tspan x="0" y="0"> </tspan></text>
    <text id="T-5" data-name="T" transform="matrix(0.845, -0.535, 0.535, 0.845, 591.329, 7221.574)" fill="#70ea78" font-size="12" font-family="UniversLTPro-BoldExt, Univers LT Pro" font-weight="700"><tspan x="0" y="0">T</tspan></text>
    <text id="E-12" data-name="E" transform="translate(599.148 7216.615) rotate(-32.439)" fill="#70ea78" font-size="12" font-family="UniversLTPro-BoldExt, Univers LT Pro" font-weight="700"><tspan x="0" y="0">E</tspan></text>
    <text id="M-2" data-name="M" transform="matrix(0.851, -0.525, 0.525, 0.851, 606.958, 7211.618)" fill="#70ea78" font-size="12" font-family="UniversLTPro-BoldExt, Univers LT Pro" font-weight="700"><tspan x="0" y="0">M</tspan></text>
    <text id="P-2" data-name="P" transform="translate(620.05 7203.617) rotate(-29.104)" fill="#70ea78" font-size="12" font-family="UniversLTPro-BoldExt, Univers LT Pro" font-weight="700"><tspan x="0" y="0">P</tspan></text>
    <text id="O-2" data-name="O" transform="translate(628.87 7198.597) rotate(-24.44)" fill="#70ea78" font-size="12" font-family="UniversLTPro-BoldExt, Univers LT Pro" font-weight="700"><tspan x="0" y="0">O</tspan></text>
    <text id="R-3" data-name="R" transform="translate(639.693 7193.664) rotate(-18.511)" fill="#70ea78" font-size="12" font-family="UniversLTPro-BoldExt, Univers LT Pro" font-weight="700"><tspan x="0" y="0">R</tspan></text>
    <text id="_12" data-name=" " transform="matrix(0.964, -0.265, 0.265, 0.964, 650.167, 7190.287)" fill="#70ea78" font-size="12" font-family="UniversLTPro-BoldExt, Univers LT Pro" font-weight="700"><tspan x="0" y="0"> </tspan></text>
    <text id="S-6" data-name="S" transform="translate(654.903 7188.937) rotate(-13.113)" fill="#70ea78" font-size="12" font-family="UniversLTPro-BoldExt, Univers LT Pro" font-weight="700"><tspan x="0" y="0">S</tspan></text>
    <text id="I-3" data-name="I" transform="matrix(0.984, -0.178, 0.178, 0.984, 664.793, 7186.71)" fill="#70ea78" font-size="12" font-family="UniversLTPro-BoldExt, Univers LT Pro" font-weight="700"><tspan x="0" y="0">I</tspan></text>
    <text id="T-6" data-name="T" transform="translate(669.63 7185.781) rotate(-7.519)" fill="#70ea78" font-size="12" font-family="UniversLTPro-BoldExt, Univers LT Pro" font-weight="700"><tspan x="0" y="0">T</tspan></text>
    <text id="_13" data-name=" " transform="translate(678.817 7184.623) rotate(-4.514)" fill="#70ea78" font-size="12" font-family="UniversLTPro-BoldExt, Univers LT Pro" font-weight="700"><tspan x="0" y="0"> </tspan></text>
    <text id="A-4" data-name="A" transform="translate(683.429 7184.122) rotate(-0.751)" fill="#70ea78" font-size="12" font-family="UniversLTPro-BoldExt, Univers LT Pro" font-weight="700"><tspan x="0" y="0">A</tspan></text>
    <text id="M-3" data-name="M" transform="translate(695.325 7183.809) rotate(6.125)" fill="#70ea78" font-size="12" font-family="UniversLTPro-BoldExt, Univers LT Pro" font-weight="700"><tspan x="0" y="0">M</tspan></text>
    <text id="E-13" data-name="E" transform="translate(710.568 7185.592) rotate(12.649)" fill="#70ea78" font-size="12" font-family="UniversLTPro-BoldExt, Univers LT Pro" font-weight="700"><tspan x="0" y="0">E</tspan></text>
    <text id="T-7" data-name="T" transform="translate(719.614 7187.646) rotate(17.745)" fill="#70ea78" font-size="12" font-family="UniversLTPro-BoldExt, Univers LT Pro" font-weight="700"><tspan x="0" y="0">T</tspan></text>
    <text id="_14" data-name=" " transform="matrix(0.925, 0.381, -0.381, 0.925, 728.404, 7190.557)" fill="#70ea78" font-size="12" font-family="UniversLTPro-BoldExt, Univers LT Pro" font-weight="700"><tspan x="0" y="0"> </tspan></text>
    <text id="L-4" data-name="L" transform="matrix(0.9, 0.435, -0.435, 0.9, 732.975, 7192.392)" fill="#70ea78" font-size="12" font-family="UniversLTPro-BoldExt, Univers LT Pro" font-weight="700"><tspan x="0" y="0">L</tspan></text>
    <text id="I-4" data-name="I" transform="translate(740.504 7196.127) rotate(29.901)" fill="#70ea78" font-size="12" font-family="UniversLTPro-BoldExt, Univers LT Pro" font-weight="700"><tspan x="0" y="0">I</tspan></text>
    <text id="G-2" data-name="G" transform="matrix(0.822, 0.569, -0.569, 0.822, 744.85, 7198.465)" fill="#70ea78" font-size="12" font-family="UniversLTPro-BoldExt, Univers LT Pro" font-weight="700"><tspan x="0" y="0">G</tspan></text>
    <text id="U-4" data-name="U" transform="matrix(0.757, 0.653, -0.653, 0.757, 754.605, 7205.25)" fill="#70ea78" font-size="12" font-family="UniversLTPro-BoldExt, Univers LT Pro" font-weight="700"><tspan x="0" y="0">U</tspan></text>
    <text id="L-5" data-name="L" transform="matrix(0.702, 0.712, -0.712, 0.702, 762.904, 7212.483)" fill="#70ea78" font-size="12" font-family="UniversLTPro-BoldExt, Univers LT Pro" font-weight="700"><tspan x="0" y="0">L</tspan></text>
    <text id="A-5" data-name="A" transform="translate(768.847 7218.435) rotate(49.768)" fill="#70ea78" font-size="12" font-family="UniversLTPro-BoldExt, Univers LT Pro" font-weight="700"><tspan x="0" y="0">A</tspan></text>
    <text id="_.-2" data-name="." transform="matrix(0.608, 0.794, -0.794, 0.608, 776.422, 7227.576)" fill="#70ea78" font-size="12" font-family="UniversLTPro-BoldExt, Univers LT Pro" font-weight="700"><tspan x="0" y="0">.</tspan></text>
    <text id="_15" data-name=" " transform="matrix(0.585, 0.811, -0.811, 0.585, 779.417, 7231.482)" fill="#70ea78" font-size="12" font-family="UniversLTPro-BoldExt, Univers LT Pro" font-weight="700"><tspan x="0" y="0"> </tspan></text>
    <text id="P-3" data-name="P" transform="matrix(0.564, 0.826, -0.826, 0.564, 782.326, 7235.454)" fill="#70ea78" font-size="12" font-family="UniversLTPro-BoldExt, Univers LT Pro" font-weight="700"><tspan x="0" y="0">P</tspan></text>
    <text id="H-3" data-name="H" transform="translate(788.063 7243.816) rotate(58.165)" fill="#70ea78" font-size="12" font-family="UniversLTPro-BoldExt, Univers LT Pro" font-weight="700"><tspan x="0" y="0">H</tspan></text>
    <text id="A-6" data-name="A" transform="translate(793.882 7253.158) rotate(59.722)" fill="#70ea78" font-size="12" font-family="UniversLTPro-BoldExt, Univers LT Pro" font-weight="700"><tspan x="0" y="0">A</tspan></text>
    <text id="S-7" data-name="S" transform="translate(799.864 7263.416) rotate(61.401)" fill="#70ea78" font-size="12" font-family="UniversLTPro-BoldExt, Univers LT Pro" font-weight="700"><tspan x="0" y="0">S</tspan></text>
    <text id="E-14" data-name="E" transform="matrix(0.464, 0.886, -0.886, 0.464, 804.733, 7272.308)" fill="#70ea78" font-size="12" font-family="UniversLTPro-BoldExt, Univers LT Pro" font-weight="700"><tspan x="0" y="0">E</tspan></text>
    <text id="L-6" data-name="L" transform="translate(809.031 7280.522) rotate(62.918)" fill="#70ea78" font-size="12" font-family="UniversLTPro-BoldExt, Univers LT Pro" font-weight="700"><tspan x="0" y="0">L</tspan></text>
    <text id="L-7" data-name="L" transform="matrix(0.446, 0.895, -0.895, 0.446, 812.854, 7288.006)" fill="#70ea78" font-size="12" font-family="UniversLTPro-BoldExt, Univers LT Pro" font-weight="700"><tspan x="0" y="0">L</tspan></text>
    <text id="U-5" data-name="U" transform="matrix(0.439, 0.898, -0.898, 0.439, 816.605, 7295.526)" fill="#70ea78" font-size="12" font-family="UniversLTPro-BoldExt, Univers LT Pro" font-weight="700"><tspan x="0" y="0">U</tspan></text>
    <text id="S-8" data-name="S" transform="translate(821.437 7305.415) rotate(64.16)" fill="#70ea78" font-size="12" font-family="UniversLTPro-BoldExt, Univers LT Pro" font-weight="700"><tspan x="0" y="0">S</tspan></text>
    <text id="_16" data-name=" " transform="translate(825.854 7314.54) rotate(64.185)" fill="#70ea78" font-size="12" font-family="UniversLTPro-BoldExt, Univers LT Pro" font-weight="700"><tspan x="0" y="0"> </tspan></text>
    <text id="A-7" data-name="A" transform="translate(827.864 7318.711) rotate(64.048)" fill="#70ea78" font-size="12" font-family="UniversLTPro-BoldExt, Univers LT Pro" font-weight="700"><tspan x="0" y="0">A</tspan></text>
    <text id="_17" data-name=" " transform="translate(833.066 7329.383) rotate(63.838)" fill="#70ea78" font-size="12" font-family="UniversLTPro-BoldExt, Univers LT Pro" font-weight="700"><tspan x="0" y="0"> </tspan></text>
    <text id="T-8" data-name="T" transform="translate(835.032 7333.419) rotate(63.335)" fill="#70ea78" font-size="12" font-family="UniversLTPro-BoldExt, Univers LT Pro" font-weight="700"><tspan x="0" y="0">T</tspan></text>
    <text id="E-15" data-name="E" transform="translate(839.186 7341.694) rotate(62.868)" fill="#70ea78" font-size="12" font-family="UniversLTPro-BoldExt, Univers LT Pro" font-weight="700"><tspan x="0" y="0">E</tspan></text>
    <text id="M-4" data-name="M" transform="translate(843.361 7349.975) rotate(61.197)" fill="#70ea78" font-size="12" font-family="UniversLTPro-BoldExt, Univers LT Pro" font-weight="700"><tspan x="0" y="0">M</tspan></text>
    <text id="U-6" data-name="U" transform="translate(850.754 7363.419) rotate(59.271)" fill="#70ea78" font-size="12" font-family="UniversLTPro-BoldExt, Univers LT Pro" font-weight="700"><tspan x="0" y="0">U</tspan></text>
    <text id="S-9" data-name="S" transform="translate(856.361 7372.892) rotate(56.724)" fill="#70ea78" font-size="12" font-family="UniversLTPro-BoldExt, Univers LT Pro" font-weight="700"><tspan x="0" y="0">S</tspan></text>
    <text id="_18" data-name=" " transform="matrix(0.571, 0.821, -0.821, 0.571, 861.957, 7381.346)" fill="#70ea78" font-size="12" font-family="UniversLTPro-BoldExt, Univers LT Pro" font-weight="700"><tspan x="0" y="0"> </tspan></text>
    <text id="N-6" data-name="N" transform="translate(864.676 7385.459) rotate(51.474)" fill="#70ea78" font-size="12" font-family="UniversLTPro-BoldExt, Univers LT Pro" font-weight="700"><tspan x="0" y="0">N</tspan></text>
    <text id="U-7" data-name="U" transform="translate(872.143 7394.689) rotate(48.892)" fill="#70ea78" font-size="12" font-family="UniversLTPro-BoldExt, Univers LT Pro" font-weight="700"><tspan x="0" y="0">U</tspan></text>
    <text id="N-7" data-name="N" transform="translate(879.372 7402.987) rotate(49.022)" fill="#70ea78" font-size="12" font-family="UniversLTPro-BoldExt, Univers LT Pro" font-weight="700"><tspan x="0" y="0">N</tspan></text>
    <text id="C-3" data-name="C" transform="translate(887.155 7411.953) rotate(48.661)" fill="#70ea78" font-size="12" font-family="UniversLTPro-BoldExt, Univers LT Pro" font-weight="700"><tspan x="0" y="0">C</tspan></text>
    <text id="_19" data-name=" " transform="translate(894.438 7420.205) rotate(48.107)" fill="#70ea78" font-size="12" font-family="UniversLTPro-BoldExt, Univers LT Pro" font-weight="700"><tspan x="0" y="0"> </tspan></text>
    <text id="E-16" data-name="E" transform="translate(897.713 7423.88) rotate(47.316)" fill="#70ea78" font-size="12" font-family="UniversLTPro-BoldExt, Univers LT Pro" font-weight="700"><tspan x="0" y="0">E</tspan></text>
    <text id="G-3" data-name="G" transform="translate(903.973 7430.72) rotate(45.886)" fill="#70ea78" font-size="12" font-family="UniversLTPro-BoldExt, Univers LT Pro" font-weight="700"><tspan x="0" y="0">G</tspan></text>
    <text id="E-17" data-name="E" transform="matrix(0.716, 0.698, -0.698, 0.716, 912.247, 7439.235)" fill="#70ea78" font-size="12" font-family="UniversLTPro-BoldExt, Univers LT Pro" font-weight="700"><tspan x="0" y="0">E</tspan></text>
    <text id="T-9" data-name="T" transform="matrix(0.74, 0.673, -0.673, 0.74, 918.891, 7445.702)" fill="#70ea78" font-size="12" font-family="UniversLTPro-BoldExt, Univers LT Pro" font-weight="700"><tspan x="0" y="0">T</tspan></text>
    <text id="_20" data-name=" " transform="matrix(0.758, 0.652, -0.652, 0.758, 925.766, 7451.905)" fill="#70ea78" font-size="12" font-family="UniversLTPro-BoldExt, Univers LT Pro" font-weight="700"><tspan x="0" y="0"> </tspan></text>
    <text id="B-3" data-name="B" transform="translate(929.473 7455.146) rotate(38.475)" fill="#70ea78" font-size="12" font-family="UniversLTPro-BoldExt, Univers LT Pro" font-weight="700"><tspan x="0" y="0">B</tspan></text>
    <text id="I-5" data-name="I" transform="matrix(0.809, 0.587, -0.587, 0.809, 938.139, 7461.93)" fill="#70ea78" font-size="12" font-family="UniversLTPro-BoldExt, Univers LT Pro" font-weight="700"><tspan x="0" y="0">I</tspan></text>
    <text id="B-4" data-name="B" transform="matrix(0.837, 0.547, -0.547, 0.837, 942.089, 7464.874)" fill="#70ea78" font-size="12" font-family="UniversLTPro-BoldExt, Univers LT Pro" font-weight="700"><tspan x="0" y="0">B</tspan></text>
    <text id="E-18" data-name="E" transform="translate(951.319 7470.875) rotate(28.955)" fill="#70ea78" font-size="12" font-family="UniversLTPro-BoldExt, Univers LT Pro" font-weight="700"><tspan x="0" y="0">E</tspan></text>
    <text id="N-8" data-name="N" transform="translate(959.399 7475.44) rotate(24.199)" fill="#70ea78" font-size="12" font-family="UniversLTPro-BoldExt, Univers LT Pro" font-weight="700"><tspan x="0" y="0">N</tspan></text>
    <text id="D-4" data-name="D" transform="translate(970.244 7480.288) rotate(18.937)" fill="#70ea78" font-size="12" font-family="UniversLTPro-BoldExt, Univers LT Pro" font-weight="700"><tspan x="0" y="0">D</tspan></text>
    <text id="U-8" data-name="U" transform="matrix(0.976, 0.217, -0.217, 0.976, 980.663, 7483.875)" fill="#70ea78" font-size="12" font-family="UniversLTPro-BoldExt, Univers LT Pro" font-weight="700"><tspan x="0" y="0">U</tspan></text>
    <text id="M-5" data-name="M" transform="matrix(0.995, 0.1, -0.1, 0.995, 991.396, 7486.417)" fill="#70ea78" font-size="12" font-family="UniversLTPro-BoldExt, Univers LT Pro" font-weight="700"><tspan x="0" y="0">M</tspan></text>
    <text id="_21" data-name=" " transform="translate(1006.683 7487.677) rotate(0.329)" fill="#70ea78" font-size="12" font-family="UniversLTPro-BoldExt, Univers LT Pro" font-weight="700"><tspan x="0" y="0"> </tspan></text>
    <text id="E-19" data-name="E" transform="translate(1011.607 7487.714) rotate(-2.061)" fill="#70ea78" font-size="12" font-family="UniversLTPro-BoldExt, Univers LT Pro" font-weight="700"><tspan x="0" y="0">E</tspan></text>
    <text id="S-10" data-name="S" transform="matrix(0.998, -0.065, 0.065, 0.998, 1020.873, 7487.38)" fill="#70ea78" font-size="12" font-family="UniversLTPro-BoldExt, Univers LT Pro" font-weight="700"><tspan x="0" y="0">S</tspan></text>
    <text id="T-10" data-name="T" transform="translate(1030.989 7486.712) rotate(-4.773)" fill="#70ea78" font-size="12" font-family="UniversLTPro-BoldExt, Univers LT Pro" font-weight="700"><tspan x="0" y="0">T</tspan></text>
    <text id="_.-3" data-name="." transform="translate(1038.919 7486.039) rotate(-5.308)" fill="#70ea78" font-size="12" font-family="UniversLTPro-BoldExt, Univers LT Pro" font-weight="700"><tspan x="0" y="0">.</tspan></text>
    <text id="_22" data-name=" " transform="matrix(0.995, -0.101, 0.101, 0.995, 1043.82, 7485.581)" fill="#70ea78" font-size="12" font-family="UniversLTPro-BoldExt, Univers LT Pro" font-weight="700"><tspan x="0" y="0"> </tspan></text>
    <text id="P-4" data-name="P" transform="translate(1048.719 7485.1) rotate(-6.342)" fill="#70ea78" font-size="12" font-family="UniversLTPro-BoldExt, Univers LT Pro" font-weight="700"><tspan x="0" y="0">P</tspan></text>
    <text id="H-4" data-name="H" transform="translate(1058.796 7483.986) rotate(-6.938)" fill="#70ea78" font-size="12" font-family="UniversLTPro-BoldExt, Univers LT Pro" font-weight="700"><tspan x="0" y="0">H</tspan></text>
    <text id="A-8" data-name="A" transform="matrix(0.992, -0.13, 0.13, 0.992, 1069.721, 7482.658)" fill="#70ea78" font-size="12" font-family="UniversLTPro-BoldExt, Univers LT Pro" font-weight="700"><tspan x="0" y="0">A</tspan></text>
    <text id="S-11" data-name="S" transform="translate(1081.493 7481.112) rotate(-7.883)" fill="#70ea78" font-size="12" font-family="UniversLTPro-BoldExt, Univers LT Pro" font-weight="700"><tspan x="0" y="0">S</tspan></text>
    <text id="E-20" data-name="E" transform="matrix(0.99, -0.144, 0.144, 0.99, 1091.536, 7479.721)" fill="#70ea78" font-size="12" font-family="UniversLTPro-BoldExt, Univers LT Pro" font-weight="700"><tspan x="0" y="0">E</tspan></text>
    <text id="L-8" data-name="L" transform="translate(1100.711 7478.391) rotate(-8.535)" fill="#70ea78" font-size="12" font-family="UniversLTPro-BoldExt, Univers LT Pro" font-weight="700"><tspan x="0" y="0">L</tspan></text>
    <text id="L-9" data-name="L" transform="translate(1109.021 7477.144) rotate(-8.721)" fill="#70ea78" font-size="12" font-family="UniversLTPro-BoldExt, Univers LT Pro" font-weight="700"><tspan x="0" y="0">L</tspan></text>
    <text id="U-9" data-name="U" transform="translate(1117.328 7475.871) rotate(-9.004)" fill="#70ea78" font-size="12" font-family="UniversLTPro-BoldExt, Univers LT Pro" font-weight="700"><tspan x="0" y="0">U</tspan></text>
    <text id="S-12" data-name="S" transform="matrix(0.987, -0.161, 0.161, 0.987, 1128.198, 7474.15)" fill="#70ea78" font-size="12" font-family="UniversLTPro-BoldExt, Univers LT Pro" font-weight="700"><tspan x="0" y="0">S</tspan></text>
    <text id="_23" data-name=" " transform="matrix(0.987, -0.163, 0.163, 0.987, 1138.204, 7472.517)" fill="#70ea78" font-size="12" font-family="UniversLTPro-BoldExt, Univers LT Pro" font-weight="700"><tspan x="0" y="0"> </tspan></text>
    <text id="A-9" data-name="A" transform="translate(1142.772 7471.766) rotate(-9.569)" fill="#70ea78" font-size="12" font-family="UniversLTPro-BoldExt, Univers LT Pro" font-weight="700"><tspan x="0" y="0">A</tspan></text>
    <text id="T-11" data-name="T" transform="matrix(0.986, -0.17, 0.17, 0.986, 1153.625, 7469.936)" fill="#70ea78" font-size="12" font-family="UniversLTPro-BoldExt, Univers LT Pro" font-weight="700"><tspan x="0" y="0">T</tspan></text>
    <text id="_24" data-name=" " transform="translate(1162.749 7468.362) rotate(-9.876)" fill="#70ea78" font-size="12" font-family="UniversLTPro-BoldExt, Univers LT Pro" font-weight="700"><tspan x="0" y="0"> </tspan></text>
    <text id="E-21" data-name="E" transform="matrix(0.985, -0.174, 0.174, 0.985, 1167.599, 7467.52)" fill="#70ea78" font-size="12" font-family="UniversLTPro-BoldExt, Univers LT Pro" font-weight="700"><tspan x="0" y="0">E</tspan></text>
    <text id="X-3" data-name="X" transform="matrix(0.984, -0.177, 0.177, 0.984, 1176.729, 7465.908)" fill="#70ea78" font-size="12" font-family="UniversLTPro-BoldExt, Univers LT Pro" font-weight="700"><tspan x="0" y="0">X</tspan></text>
    <text id="_25" data-name=" " transform="matrix(0.984, -0.18, 0.18, 0.984, 1186.984, 7464.061)" fill="#70ea78" font-size="12" font-family="UniversLTPro-BoldExt, Univers LT Pro" font-weight="700"><tspan x="0" y="0"> </tspan></text>
  </g>
</svg>
