<svg xmlns="http://www.w3.org/2000/svg" width="753.564" height="205.716" viewBox="0 0 753.564 205.716">
  <g id="Group_122" data-name="Group 122" transform="translate(-60.464 -5121.966)">
    <text id="N" transform="translate(63.143 5310.022) rotate(-19.561)" fill="#70ea78" font-size="10" font-family="UniversLTPro-BoldExt, Univers LT Pro" font-weight="700"><tspan x="0" y="0">N</tspan></text>
    <text id="U" transform="matrix(0.93, -0.369, 0.369, 0.93, 72.599, 5306.644)" fill="#70ea78" font-size="10" font-family="UniversLTPro-BoldExt, Univers LT Pro" font-weight="700"><tspan x="0" y="0">U</tspan></text>
    <text id="N-2" data-name="N" transform="translate(81.251 5303.213) rotate(-23.164)" fill="#70ea78" font-size="10" font-family="UniversLTPro-BoldExt, Univers LT Pro" font-weight="700"><tspan x="0" y="0">N</tspan></text>
    <text id="C" transform="translate(90.478 5299.253) rotate(-24.651)" fill="#70ea78" font-size="10" font-family="UniversLTPro-BoldExt, Univers LT Pro" font-weight="700"><tspan x="0" y="0">C</tspan></text>
    <text id="_" data-name=" " transform="translate(98.93 5295.354) rotate(-25.706)" fill="#70ea78" font-size="10" font-family="UniversLTPro-BoldExt, Univers LT Pro" font-weight="700"><tspan x="0" y="0"> </tspan></text>
    <text id="E" transform="matrix(0.895, -0.445, 0.445, 0.895, 102.687, 5293.561)" fill="#70ea78" font-size="10" font-family="UniversLTPro-BoldExt, Univers LT Pro" font-weight="700"><tspan x="0" y="0">E</tspan></text>
    <text id="G" transform="matrix(0.885, -0.466, 0.466, 0.885, 109.716, 5290.086)" fill="#70ea78" font-size="10" font-family="UniversLTPro-BoldExt, Univers LT Pro" font-weight="700"><tspan x="0" y="0">G</tspan></text>
    <text id="E-2" data-name="E" transform="matrix(0.875, -0.485, 0.485, 0.875, 118.6, 5285.407)" fill="#70ea78" font-size="10" font-family="UniversLTPro-BoldExt, Univers LT Pro" font-weight="700"><tspan x="0" y="0">E</tspan></text>
    <text id="T" transform="translate(125.463 5281.616) rotate(-30.073)" fill="#70ea78" font-size="10" font-family="UniversLTPro-BoldExt, Univers LT Pro" font-weight="700"><tspan x="0" y="0">T</tspan></text>
    <text id="_2" data-name=" " transform="matrix(0.86, -0.511, 0.511, 0.86, 132.234, 5277.684)" fill="#70ea78" font-size="10" font-family="UniversLTPro-BoldExt, Univers LT Pro" font-weight="700"><tspan x="0" y="0"> </tspan></text>
    <text id="B" transform="matrix(0.851, -0.525, 0.525, 0.851, 135.818, 5275.565)" fill="#70ea78" font-size="10" font-family="UniversLTPro-BoldExt, Univers LT Pro" font-weight="700"><tspan x="0" y="0">B</tspan></text>
    <text id="I" transform="translate(143.725 5270.656) rotate(-32.592)" fill="#70ea78" font-size="10" font-family="UniversLTPro-BoldExt, Univers LT Pro" font-weight="700"><tspan x="0" y="0">I</tspan></text>
    <text id="B-2" data-name="B" transform="translate(147.24 5268.425) rotate(-33.57)" fill="#70ea78" font-size="10" font-family="UniversLTPro-BoldExt, Univers LT Pro" font-weight="700"><tspan x="0" y="0">B</tspan></text>
    <text id="E-3" data-name="E" transform="matrix(0.821, -0.571, 0.571, 0.821, 154.989, 5263.27)" fill="#70ea78" font-size="10" font-family="UniversLTPro-BoldExt, Univers LT Pro" font-weight="700"><tspan x="0" y="0">E</tspan></text>
    <text id="N-3" data-name="N" transform="translate(161.435 5258.805) rotate(-36.173)" fill="#70ea78" font-size="10" font-family="UniversLTPro-BoldExt, Univers LT Pro" font-weight="700"><tspan x="0" y="0">N</tspan></text>
    <text id="D" transform="translate(169.541 5252.879) rotate(-37.563)" fill="#70ea78" font-size="10" font-family="UniversLTPro-BoldExt, Univers LT Pro" font-weight="700"><tspan x="0" y="0">D</tspan></text>
    <text id="U-2" data-name="U" transform="translate(176.924 5247.21) rotate(-39.015)" fill="#70ea78" font-size="10" font-family="UniversLTPro-BoldExt, Univers LT Pro" font-weight="700"><tspan x="0" y="0">U</tspan></text>
    <text id="M" transform="translate(184.168 5241.366) rotate(-40.533)" fill="#70ea78" font-size="10" font-family="UniversLTPro-BoldExt, Univers LT Pro" font-weight="700"><tspan x="0" y="0">M</tspan></text>
    <text id="_3" data-name=" " transform="translate(193.988 5232.887) rotate(-42.117)" fill="#70ea78" font-size="10" font-family="UniversLTPro-BoldExt, Univers LT Pro" font-weight="700"><tspan x="0" y="0"> </tspan></text>
    <text id="E-4" data-name="E" transform="matrix(0.731, -0.682, 0.682, 0.731, 197.091, 5230.111)" fill="#70ea78" font-size="10" font-family="UniversLTPro-BoldExt, Univers LT Pro" font-weight="700"><tspan x="0" y="0">E</tspan></text>
    <text id="S" transform="matrix(0.713, -0.701, 0.701, 0.713, 202.834, 5224.773)" fill="#70ea78" font-size="10" font-family="UniversLTPro-BoldExt, Univers LT Pro" font-weight="700"><tspan x="0" y="0">S</tspan></text>
    <text id="T-2" data-name="T" transform="matrix(0.686, -0.728, 0.728, 0.686, 208.945, 5218.758)" fill="#70ea78" font-size="10" font-family="UniversLTPro-BoldExt, Univers LT Pro" font-weight="700"><tspan x="0" y="0">T</tspan></text>
    <text id="_." data-name="." transform="matrix(0.665, -0.747, 0.747, 0.665, 213.55, 5213.849)" fill="#70ea78" font-size="10" font-family="UniversLTPro-BoldExt, Univers LT Pro" font-weight="700"><tspan x="0" y="0">.</tspan></text>
    <text id="_4" data-name=" " transform="translate(216.319 5210.741) rotate(-49.877)" fill="#70ea78" font-size="10" font-family="UniversLTPro-BoldExt, Univers LT Pro" font-weight="700"><tspan x="0" y="0"> </tspan></text>
    <text id="P" transform="matrix(0.617, -0.787, 0.787, 0.617, 219.038, 5207.586)" fill="#70ea78" font-size="10" font-family="UniversLTPro-BoldExt, Univers LT Pro" font-weight="700"><tspan x="0" y="0">P</tspan></text>
    <text id="H" transform="matrix(0.597, -0.802, 0.802, 0.597, 224.326, 5200.837)" fill="#70ea78" font-size="10" font-family="UniversLTPro-BoldExt, Univers LT Pro" font-weight="700"><tspan x="0" y="0">H</tspan></text>
    <text id="A" transform="translate(229.872 5193.362) rotate(-53.385)" fill="#70ea78" font-size="10" font-family="UniversLTPro-BoldExt, Univers LT Pro" font-weight="700"><tspan x="0" y="0">A</tspan></text>
    <text id="S-2" data-name="S" transform="matrix(0.607, -0.795, 0.795, 0.607, 235.859, 5185.302)" fill="#70ea78" font-size="10" font-family="UniversLTPro-BoldExt, Univers LT Pro" font-weight="700"><tspan x="0" y="0">S</tspan></text>
    <text id="E-5" data-name="E" transform="matrix(0.616, -0.788, 0.788, 0.616, 241.066, 5178.49)" fill="#70ea78" font-size="10" font-family="UniversLTPro-BoldExt, Univers LT Pro" font-weight="700"><tspan x="0" y="0">E</tspan></text>
    <text id="L" transform="translate(245.902 5172.319) rotate(-51.325)" fill="#70ea78" font-size="10" font-family="UniversLTPro-BoldExt, Univers LT Pro" font-weight="700"><tspan x="0" y="0">L</tspan></text>
    <text id="L-2" data-name="L" transform="matrix(0.634, -0.773, 0.773, 0.634, 250.343, 5166.771)" fill="#70ea78" font-size="10" font-family="UniversLTPro-BoldExt, Univers LT Pro" font-weight="700"><tspan x="0" y="0">L</tspan></text>
    <text id="U-3" data-name="U" transform="matrix(0.641, -0.768, 0.768, 0.641, 254.845, 5161.272)" fill="#70ea78" font-size="10" font-family="UniversLTPro-BoldExt, Univers LT Pro" font-weight="700"><tspan x="0" y="0">U</tspan></text>
    <text id="S-3" data-name="S" transform="matrix(0.698, -0.716, 0.716, 0.698, 260.77, 5154.086)" fill="#70ea78" font-size="10" font-family="UniversLTPro-BoldExt, Univers LT Pro" font-weight="700"><tspan x="0" y="0">S</tspan></text>
    <text id="_5" data-name=" " transform="matrix(0.732, -0.681, 0.681, 0.732, 266.794, 5147.985)" fill="#70ea78" font-size="10" font-family="UniversLTPro-BoldExt, Univers LT Pro" font-weight="700"><tspan x="0" y="0"> </tspan></text>
    <text id="A-2" data-name="A" transform="translate(269.622 5145.27) rotate(-38.485)" fill="#70ea78" font-size="10" font-family="UniversLTPro-BoldExt, Univers LT Pro" font-weight="700"><tspan x="0" y="0">A</tspan></text>
    <text id="T-3" data-name="T" transform="translate(276.985 5139.572) rotate(-31.822)" fill="#70ea78" font-size="10" font-family="UniversLTPro-BoldExt, Univers LT Pro" font-weight="700"><tspan x="0" y="0">T</tspan></text>
    <text id="_6" data-name=" " transform="matrix(0.911, -0.413, 0.413, 0.911, 283.705, 5135.548)" fill="#70ea78" font-size="10" font-family="UniversLTPro-BoldExt, Univers LT Pro" font-weight="700"><tspan x="0" y="0"> </tspan></text>
    <text id="E-6" data-name="E" transform="translate(287.449 5133.696) rotate(-18.382)" fill="#70ea78" font-size="10" font-family="UniversLTPro-BoldExt, Univers LT Pro" font-weight="700"><tspan x="0" y="0">E</tspan></text>
    <text id="X" transform="translate(294.889 5131.12) rotate(-7.846)" fill="#70ea78" font-size="10" font-family="UniversLTPro-BoldExt, Univers LT Pro" font-weight="700"><tspan x="0" y="0">X</tspan></text>
    <text id="_7" data-name=" " transform="translate(304.132 5130.021) rotate(0.689)" fill="#70ea78" font-size="10" font-family="UniversLTPro-BoldExt, Univers LT Pro" font-weight="700"><tspan x="0" y="0"> </tspan></text>
    <text id="N-4" data-name="N" transform="translate(308.321 5129.884) rotate(8.945)" fill="#70ea78" font-size="10" font-family="UniversLTPro-BoldExt, Univers LT Pro" font-weight="700"><tspan x="0" y="0">N</tspan></text>
    <text id="E-7" data-name="E" transform="translate(318.209 5131.646) rotate(18.459)" fill="#70ea78" font-size="10" font-family="UniversLTPro-BoldExt, Univers LT Pro" font-weight="700"><tspan x="0" y="0">E</tspan></text>
    <text id="C-2" data-name="C" transform="translate(325.634 5134.198) rotate(26.811)" fill="#70ea78" font-size="10" font-family="UniversLTPro-BoldExt, Univers LT Pro" font-weight="700"><tspan x="0" y="0">C</tspan></text>
    <text id="_8" data-name=" " transform="translate(333.862 5138.544) rotate(32.616)" fill="#70ea78" font-size="10" font-family="UniversLTPro-BoldExt, Univers LT Pro" font-weight="700"><tspan x="0" y="0"> </tspan></text>
    <text id="E-8" data-name="E" transform="translate(337.401 5140.745) rotate(36.488)" fill="#70ea78" font-size="10" font-family="UniversLTPro-BoldExt, Univers LT Pro" font-weight="700"><tspan x="0" y="0">E</tspan></text>
    <text id="X-2" data-name="X" transform="translate(343.697 5145.423) rotate(41.073)" fill="#70ea78" font-size="10" font-family="UniversLTPro-BoldExt, Univers LT Pro" font-weight="700"><tspan x="0" y="0">X</tspan></text>
    <text id="_9" data-name=" " transform="translate(350.654 5151.606) rotate(45.078)" fill="#70ea78" font-size="10" font-family="UniversLTPro-BoldExt, Univers LT Pro" font-weight="700"><tspan x="0" y="0"> </tspan></text>
    <text id="H-2" data-name="H" transform="translate(353.664 5154.488) rotate(47.754)" fill="#70ea78" font-size="10" font-family="UniversLTPro-BoldExt, Univers LT Pro" font-weight="700"><tspan x="0" y="0">H</tspan></text>
    <text id="E-9" data-name="E" transform="translate(359.904 5161.395) rotate(50.188)" fill="#70ea78" font-size="10" font-family="UniversLTPro-BoldExt, Univers LT Pro" font-weight="700"><tspan x="0" y="0">E</tspan></text>
    <text id="N-5" data-name="N" transform="matrix(0.59, 0.808, -0.808, 0.59, 364.922, 5167.423)" fill="#70ea78" font-size="10" font-family="UniversLTPro-BoldExt, Univers LT Pro" font-weight="700"><tspan x="0" y="0">N</tspan></text>
    <text id="D-2" data-name="D" transform="matrix(0.516, 0.857, -0.857, 0.516, 370.844, 5175.539)" fill="#70ea78" font-size="10" font-family="UniversLTPro-BoldExt, Univers LT Pro" font-weight="700"><tspan x="0" y="0">D</tspan></text>
    <text id="R" transform="translate(375.645 5183.516) rotate(62.652)" fill="#70ea78" font-size="10" font-family="UniversLTPro-BoldExt, Univers LT Pro" font-weight="700"><tspan x="0" y="0">R</tspan></text>
    <text id="E-10" data-name="E" transform="translate(379.862 5191.813) rotate(65.169)" fill="#70ea78" font-size="10" font-family="UniversLTPro-BoldExt, Univers LT Pro" font-weight="700"><tspan x="0" y="0">E</tspan></text>
    <text id="R-2" data-name="R" transform="translate(383.081 5198.964) rotate(63.222)" fill="#70ea78" font-size="10" font-family="UniversLTPro-BoldExt, Univers LT Pro" font-weight="700"><tspan x="0" y="0">R</tspan></text>
    <text id="I-2" data-name="I" transform="matrix(0.54, 0.842, -0.842, 0.54, 387.341, 5207.242)" fill="#70ea78" font-size="10" font-family="UniversLTPro-BoldExt, Univers LT Pro" font-weight="700"><tspan x="0" y="0">I</tspan></text>
    <text id="T-4" data-name="T" transform="matrix(0.624, 0.781, -0.781, 0.624, 389.51, 5210.808)" fill="#70ea78" font-size="10" font-family="UniversLTPro-BoldExt, Univers LT Pro" font-weight="700"><tspan x="0" y="0">T</tspan></text>
    <text id="_10" data-name=" " transform="matrix(0.724, 0.689, -0.689, 0.724, 394.508, 5216.837)" fill="#70ea78" font-size="10" font-family="UniversLTPro-BoldExt, Univers LT Pro" font-weight="700"><tspan x="0" y="0"> </tspan></text>
    <text id="S-4" data-name="S" transform="translate(397.439 5219.815) rotate(37.525)" fill="#70ea78" font-size="10" font-family="UniversLTPro-BoldExt, Univers LT Pro" font-weight="700"><tspan x="0" y="0">S</tspan></text>
    <text id="O" transform="matrix(0.853, 0.522, -0.522, 0.853, 404.231, 5225.063)" fill="#70ea78" font-size="10" font-family="UniversLTPro-BoldExt, Univers LT Pro" font-weight="700"><tspan x="0" y="0">O</tspan></text>
    <text id="D-3" data-name="D" transform="translate(412.892 5230.188) rotate(18.515)" fill="#70ea78" font-size="10" font-family="UniversLTPro-BoldExt, Univers LT Pro" font-weight="700"><tspan x="0" y="0">D</tspan></text>
    <text id="A-3" data-name="A" transform="translate(421.387 5232.975) rotate(17.435)" fill="#70ea78" font-size="10" font-family="UniversLTPro-BoldExt, Univers LT Pro" font-weight="700"><tspan x="0" y="0">A</tspan></text>
    <text id="L-3" data-name="L" transform="translate(430.968 5235.979) rotate(19.242)" fill="#70ea78" font-size="10" font-family="UniversLTPro-BoldExt, Univers LT Pro" font-weight="700"><tspan x="0" y="0">L</tspan></text>
    <text id="E-11" data-name="E" transform="translate(437.688 5238.299) rotate(22.081)" fill="#70ea78" font-size="10" font-family="UniversLTPro-BoldExt, Univers LT Pro" font-weight="700"><tspan x="0" y="0">E</tspan></text>
    <text id="S-5" data-name="S" transform="matrix(0.885, 0.466, -0.466, 0.885, 444.981, 5241.204)" fill="#70ea78" font-size="10" font-family="UniversLTPro-BoldExt, Univers LT Pro" font-weight="700"><tspan x="0" y="0">S</tspan></text>
    <text id="_11" data-name=" " transform="translate(452.509 5245.306) rotate(32.816)" fill="#70ea78" font-size="10" font-family="UniversLTPro-BoldExt, Univers LT Pro" font-weight="700"><tspan x="0" y="0"> </tspan></text>
    <text id="T-5" data-name="T" transform="matrix(0.787, 0.617, -0.617, 0.787, 455.755, 5247.292)" fill="#70ea78" font-size="10" font-family="UniversLTPro-BoldExt, Univers LT Pro" font-weight="700"><tspan x="0" y="0">T</tspan></text>
    <text id="E-12" data-name="E" transform="translate(461.924 5252.131) rotate(45.574)" fill="#70ea78" font-size="10" font-family="UniversLTPro-BoldExt, Univers LT Pro" font-weight="700"><tspan x="0" y="0">E</tspan></text>
    <text id="M-2" data-name="M" transform="translate(467.545 5257.65) rotate(54.99)" fill="#70ea78" font-size="10" font-family="UniversLTPro-BoldExt, Univers LT Pro" font-weight="700"><tspan x="0" y="0">M</tspan></text>
    <text id="P-2" data-name="P" transform="translate(474.813 5268.396) rotate(60.132)" fill="#70ea78" font-size="10" font-family="UniversLTPro-BoldExt, Univers LT Pro" font-weight="700"><tspan x="0" y="0">P</tspan></text>
    <text id="O-2" data-name="O" transform="translate(479 5275.881) rotate(58.241)" fill="#70ea78" font-size="10" font-family="UniversLTPro-BoldExt, Univers LT Pro" font-weight="700"><tspan x="0" y="0">O</tspan></text>
    <text id="R-3" data-name="R" transform="translate(484.24 5284.486) rotate(49.553)" fill="#70ea78" font-size="10" font-family="UniversLTPro-BoldExt, Univers LT Pro" font-weight="700"><tspan x="0" y="0">R</tspan></text>
    <text id="_12" data-name=" " transform="matrix(0.748, 0.663, -0.663, 0.748, 490.389, 5291.475)" fill="#70ea78" font-size="10" font-family="UniversLTPro-BoldExt, Univers LT Pro" font-weight="700"><tspan x="0" y="0"> </tspan></text>
    <text id="S-6" data-name="S" transform="matrix(0.832, 0.555, -0.555, 0.832, 493.413, 5294.37)" fill="#70ea78" font-size="10" font-family="UniversLTPro-BoldExt, Univers LT Pro" font-weight="700"><tspan x="0" y="0">S</tspan></text>
    <text id="I-3" data-name="I" transform="matrix(0.892, 0.452, -0.452, 0.892, 500.617, 5299.02)" fill="#70ea78" font-size="10" font-family="UniversLTPro-BoldExt, Univers LT Pro" font-weight="700"><tspan x="0" y="0">I</tspan></text>
    <text id="T-6" data-name="T" transform="translate(504.296 5300.989) rotate(21.444)" fill="#70ea78" font-size="10" font-family="UniversLTPro-BoldExt, Univers LT Pro" font-weight="700"><tspan x="0" y="0">T</tspan></text>
    <text id="_13" data-name=" " transform="translate(511.607 5303.794) rotate(17.256)" fill="#70ea78" font-size="10" font-family="UniversLTPro-BoldExt, Univers LT Pro" font-weight="700"><tspan x="0" y="0"> </tspan></text>
    <text id="A-4" data-name="A" transform="translate(515.337 5304.992) rotate(14.463)" fill="#70ea78" font-size="10" font-family="UniversLTPro-BoldExt, Univers LT Pro" font-weight="700"><tspan x="0" y="0">A</tspan></text>
    <text id="M-3" data-name="M" transform="translate(525.06 5307.5) rotate(12.748)" fill="#70ea78" font-size="10" font-family="UniversLTPro-BoldExt, Univers LT Pro" font-weight="700"><tspan x="0" y="0">M</tspan></text>
    <text id="E-13" data-name="E" transform="matrix(0.981, 0.195, -0.195, 0.981, 537.725, 5310.318)" fill="#70ea78" font-size="10" font-family="UniversLTPro-BoldExt, Univers LT Pro" font-weight="700"><tspan x="0" y="0">E</tspan></text>
    <text id="T-7" data-name="T" transform="translate(545.414 5311.851) rotate(10.418)" fill="#70ea78" font-size="10" font-family="UniversLTPro-BoldExt, Univers LT Pro" font-weight="700"><tspan x="0" y="0">T</tspan></text>
    <text id="_14" data-name=" " transform="translate(553.117 5313.255) rotate(9.889)" fill="#70ea78" font-size="10" font-family="UniversLTPro-BoldExt, Univers LT Pro" font-weight="700"><tspan x="0" y="0"> </tspan></text>
    <text id="L-4" data-name="L" transform="translate(557.219 5313.97) rotate(9.374)" fill="#70ea78" font-size="10" font-family="UniversLTPro-BoldExt, Univers LT Pro" font-weight="700"><tspan x="0" y="0">L</tspan></text>
    <text id="I-4" data-name="I" transform="translate(564.233 5315.112) rotate(8.872)" fill="#70ea78" font-size="10" font-family="UniversLTPro-BoldExt, Univers LT Pro" font-weight="700"><tspan x="0" y="0">I</tspan></text>
    <text id="G-2" data-name="G" transform="matrix(0.99, 0.142, -0.142, 0.99, 568.344, 5315.768)" fill="#70ea78" font-size="10" font-family="UniversLTPro-BoldExt, Univers LT Pro" font-weight="700"><tspan x="0" y="0">G</tspan></text>
    <text id="U-4" data-name="U" transform="translate(578.284 5317.187) rotate(7.423)" fill="#70ea78" font-size="10" font-family="UniversLTPro-BoldExt, Univers LT Pro" font-weight="700"><tspan x="0" y="0">U</tspan></text>
    <text id="L-5" data-name="L" transform="matrix(0.993, 0.117, -0.117, 0.993, 587.514, 5318.383)" fill="#70ea78" font-size="10" font-family="UniversLTPro-BoldExt, Univers LT Pro" font-weight="700"><tspan x="0" y="0">L</tspan></text>
    <text id="A-5" data-name="A" transform="translate(594.57 5319.236) rotate(6.029)" fill="#70ea78" font-size="10" font-family="UniversLTPro-BoldExt, Univers LT Pro" font-weight="700"><tspan x="0" y="0">A</tspan></text>
    <text id="_.-2" data-name="." transform="translate(604.555 5320.288) rotate(5.57)" fill="#70ea78" font-size="10" font-family="UniversLTPro-BoldExt, Univers LT Pro" font-weight="700"><tspan x="0" y="0">.</tspan></text>
    <text id="_15" data-name=" " transform="translate(608.698 5320.693) rotate(5.342)" fill="#70ea78" font-size="10" font-family="UniversLTPro-BoldExt, Univers LT Pro" font-weight="700"><tspan x="0" y="0"> </tspan></text>
    <text id="P-3" data-name="P" transform="translate(612.842 5321.091) rotate(4.886)" fill="#70ea78" font-size="10" font-family="UniversLTPro-BoldExt, Univers LT Pro" font-weight="700"><tspan x="0" y="0">P</tspan></text>
    <text id="H-3" data-name="H" transform="matrix(0.997, 0.073, -0.073, 0.997, 621.384, 5321.833)" fill="#70ea78" font-size="10" font-family="UniversLTPro-BoldExt, Univers LT Pro" font-weight="700"><tspan x="0" y="0">H</tspan></text>
    <text id="A-6" data-name="A" transform="translate(630.666 5322.518) rotate(3.746)" fill="#70ea78" font-size="10" font-family="UniversLTPro-BoldExt, Univers LT Pro" font-weight="700"><tspan x="0" y="0">A</tspan></text>
    <text id="S-7" data-name="S" transform="translate(640.686 5323.162) rotate(3.058)" fill="#70ea78" font-size="10" font-family="UniversLTPro-BoldExt, Univers LT Pro" font-weight="700"><tspan x="0" y="0">S</tspan></text>
    <text id="E-14" data-name="E" transform="translate(649.248 5323.613) rotate(2.596)" fill="#70ea78" font-size="10" font-family="UniversLTPro-BoldExt, Univers LT Pro" font-weight="700"><tspan x="0" y="0">E</tspan></text>
    <text id="L-6" data-name="L" transform="matrix(0.999, 0.037, -0.037, 0.999, 657.08, 5323.958)" fill="#70ea78" font-size="10" font-family="UniversLTPro-BoldExt, Univers LT Pro" font-weight="700"><tspan x="0" y="0">L</tspan></text>
    <text id="L-7" data-name="L" transform="translate(664.183 5324.214) rotate(1.664)" fill="#70ea78" font-size="10" font-family="UniversLTPro-BoldExt, Univers LT Pro" font-weight="700"><tspan x="0" y="0">L</tspan></text>
    <text id="U-5" data-name="U" transform="translate(671.286 5324.415) rotate(1.192)" fill="#70ea78" font-size="10" font-family="UniversLTPro-BoldExt, Univers LT Pro" font-weight="700"><tspan x="0" y="0">U</tspan></text>
    <text id="S-8" data-name="S" transform="translate(680.592 5324.601) rotate(0.475)" fill="#70ea78" font-size="10" font-family="UniversLTPro-BoldExt, Univers LT Pro" font-weight="700"><tspan x="0" y="0">S</tspan></text>
    <text id="_16" data-name=" " transform="matrix(1, 0.004, -0.004, 1, 689.165, 5324.665)" fill="#70ea78" font-size="10" font-family="UniversLTPro-BoldExt, Univers LT Pro" font-weight="700"><tspan x="0" y="0"> </tspan></text>
    <text id="A-7" data-name="A" transform="translate(693.08 5324.683) rotate(-0.254)" fill="#70ea78" font-size="10" font-family="UniversLTPro-BoldExt, Univers LT Pro" font-weight="700"><tspan x="0" y="0">A</tspan></text>
    <text id="_17" data-name=" " transform="translate(703.121 5324.621) rotate(-0.747)" fill="#70ea78" font-size="10" font-family="UniversLTPro-BoldExt, Univers LT Pro" font-weight="700"><tspan x="0" y="0"> </tspan></text>
    <text id="T-8" data-name="T" transform="translate(706.917 5324.571) rotate(-0.997)" fill="#70ea78" font-size="10" font-family="UniversLTPro-BoldExt, Univers LT Pro" font-weight="700"><tspan x="0" y="0">T</tspan></text>
    <text id="E-15" data-name="E" transform="matrix(1, -0.026, 0.026, 1, 714.746, 5324.418)" fill="#70ea78" font-size="10" font-family="UniversLTPro-BoldExt, Univers LT Pro" font-weight="700"><tspan x="0" y="0">E</tspan></text>
    <text id="M-4" data-name="M" transform="translate(722.583 5324.216) rotate(-2.27)" fill="#70ea78" font-size="10" font-family="UniversLTPro-BoldExt, Univers LT Pro" font-weight="700"><tspan x="0" y="0">M</tspan></text>
    <text id="U-6" data-name="U" transform="translate(735.547 5323.692) rotate(-3.058)" fill="#70ea78" font-size="10" font-family="UniversLTPro-BoldExt, Univers LT Pro" font-weight="700"><tspan x="0" y="0">U</tspan></text>
    <text id="S-9" data-name="S" transform="translate(744.841 5323.196) rotate(-3.594)" fill="#70ea78" font-size="10" font-family="UniversLTPro-BoldExt, Univers LT Pro" font-weight="700"><tspan x="0" y="0">S</tspan></text>
    <text id="_18" data-name=" " transform="matrix(0.997, -0.072, 0.072, 0.997, 753.398, 5322.656)" fill="#70ea78" font-size="10" font-family="UniversLTPro-BoldExt, Univers LT Pro" font-weight="700"><tspan x="0" y="0"> </tspan></text>
    <text id="M-5" data-name="M" transform="matrix(0.997, -0.082, 0.082, 0.997, 757.553, 5322.392)" fill="#70ea78" font-size="10" font-family="UniversLTPro-BoldExt, Univers LT Pro" font-weight="700"><tspan x="0" y="0">M</tspan></text>
    <text id="A-8" data-name="A" transform="translate(770.483 5321.321) rotate(-5.26)" fill="#70ea78" font-size="10" font-family="UniversLTPro-BoldExt, Univers LT Pro" font-weight="700"><tspan x="0" y="0">A</tspan></text>
    <text id="G-3" data-name="G" transform="translate(780.235 5320.419) rotate(-6.127)" fill="#70ea78" font-size="10" font-family="UniversLTPro-BoldExt, Univers LT Pro" font-weight="700"><tspan x="0" y="0">G</tspan></text>
    <text id="N-6" data-name="N" transform="translate(790.218 5319.349) rotate(-6.72)" fill="#70ea78" font-size="10" font-family="UniversLTPro-BoldExt, Univers LT Pro" font-weight="700"><tspan x="0" y="0">N</tspan></text>
    <text id="A-9" data-name="A" transform="translate(800.188 5318.159) rotate(-7.324)" fill="#70ea78" font-size="10" font-family="UniversLTPro-BoldExt, Univers LT Pro" font-weight="700"><tspan x="0" y="0">A</tspan></text>
    <text id="_19" data-name=" " transform="translate(809.652 5316.915) rotate(-7.941)" fill="#70ea78" font-size="10" font-family="UniversLTPro-BoldExt, Univers LT Pro" font-weight="700"><tspan x="0" y="0"> </tspan></text>
  </g>
</svg>
