<svg xmlns="http://www.w3.org/2000/svg" width="783.335" height="316.644" viewBox="0 0 783.335 316.644">
  <g id="Group_124" data-name="Group 124" transform="translate(-445.961 -8131.999)">
    <text id="N" transform="translate(446.97 8422.359) rotate(19.649)" fill="#70ea78" font-size="12" font-family="UniversLTPro-BoldExt, Univers LT Pro" font-weight="700"><tspan x="0" y="0">N</tspan></text>
    <text id="U" transform="translate(458.16 8426.33) rotate(17.42)" fill="#70ea78" font-size="12" font-family="UniversLTPro-BoldExt, Univers LT Pro" font-weight="700"><tspan x="0" y="0">U</tspan></text>
    <text id="N-2" data-name="N" transform="translate(468.664 8429.618) rotate(15.739)" fill="#70ea78" font-size="12" font-family="UniversLTPro-BoldExt, Univers LT Pro" font-weight="700"><tspan x="0" y="0">N</tspan></text>
    <text id="C" transform="translate(480.096 8432.828) rotate(13.878)" fill="#70ea78" font-size="12" font-family="UniversLTPro-BoldExt, Univers LT Pro" font-weight="700"><tspan x="0" y="0">C</tspan></text>
    <text id="_" data-name=" " transform="translate(490.786 8435.443) rotate(12.871)" fill="#70ea78" font-size="12" font-family="UniversLTPro-BoldExt, Univers LT Pro" font-weight="700"><tspan x="0" y="0"> </tspan></text>
    <text id="E" transform="translate(495.581 8436.557) rotate(11.809)" fill="#70ea78" font-size="12" font-family="UniversLTPro-BoldExt, Univers LT Pro" font-weight="700"><tspan x="0" y="0">E</tspan></text>
    <text id="G" transform="matrix(0.984, 0.18, -0.18, 0.984, 504.655, 8438.462)" fill="#70ea78" font-size="12" font-family="UniversLTPro-BoldExt, Univers LT Pro" font-weight="700"><tspan x="0" y="0">G</tspan></text>
    <text id="E-2" data-name="E" transform="translate(516.34 8440.568) rotate(8.886)" fill="#70ea78" font-size="12" font-family="UniversLTPro-BoldExt, Univers LT Pro" font-weight="700"><tspan x="0" y="0">E</tspan></text>
    <text id="T" transform="translate(525.5 8442.002) rotate(7.264)" fill="#70ea78" font-size="12" font-family="UniversLTPro-BoldExt, Univers LT Pro" font-weight="700"><tspan x="0" y="0">T</tspan></text>
    <text id="_2" data-name=" " transform="translate(534.686 8443.165) rotate(6.234)" fill="#70ea78" font-size="12" font-family="UniversLTPro-BoldExt, Univers LT Pro" font-weight="700"><tspan x="0" y="0"> </tspan></text>
    <text id="B" transform="matrix(0.996, 0.09, -0.09, 0.996, 539.577, 8443.729)" fill="#70ea78" font-size="12" font-family="UniversLTPro-BoldExt, Univers LT Pro" font-weight="700"><tspan x="0" y="0">B</tspan></text>
    <text id="I" transform="translate(550.541 8444.685) rotate(3.652)" fill="#70ea78" font-size="12" font-family="UniversLTPro-BoldExt, Univers LT Pro" font-weight="700"><tspan x="0" y="0">I</tspan></text>
    <text id="B-2" data-name="B" transform="matrix(0.999, 0.043, -0.043, 0.999, 555.451, 8445.042)" fill="#70ea78" font-size="12" font-family="UniversLTPro-BoldExt, Univers LT Pro" font-weight="700"><tspan x="0" y="0">B</tspan></text>
    <text id="E-3" data-name="E" transform="translate(566.448 8445.504) rotate(0.796)" fill="#70ea78" font-size="12" font-family="UniversLTPro-BoldExt, Univers LT Pro" font-weight="700"><tspan x="0" y="0">E</tspan></text>
    <text id="N-3" data-name="N" transform="matrix(1, -0.017, 0.017, 1, 575.719, 8445.643)" fill="#70ea78" font-size="12" font-family="UniversLTPro-BoldExt, Univers LT Pro" font-weight="700"><tspan x="0" y="0">N</tspan></text>
    <text id="D" transform="translate(587.591 8445.434) rotate(-3.325)" fill="#70ea78" font-size="12" font-family="UniversLTPro-BoldExt, Univers LT Pro" font-weight="700"><tspan x="0" y="0">D</tspan></text>
    <text id="U-2" data-name="U" transform="translate(598.58 8444.808) rotate(-5.334)" fill="#70ea78" font-size="12" font-family="UniversLTPro-BoldExt, Univers LT Pro" font-weight="700"><tspan x="0" y="0">U</tspan></text>
    <text id="M" transform="matrix(0.99, -0.139, 0.139, 0.99, 609.547, 8443.837)" fill="#70ea78" font-size="12" font-family="UniversLTPro-BoldExt, Univers LT Pro" font-weight="700"><tspan x="0" y="0">M</tspan></text>
    <text id="_3" data-name=" " transform="matrix(0.984, -0.178, 0.178, 0.984, 624.726, 8441.608)" fill="#70ea78" font-size="12" font-family="UniversLTPro-BoldExt, Univers LT Pro" font-weight="700"><tspan x="0" y="0"> </tspan></text>
    <text id="E-4" data-name="E" transform="translate(629.572 8440.745) rotate(-11.465)" fill="#70ea78" font-size="12" font-family="UniversLTPro-BoldExt, Univers LT Pro" font-weight="700"><tspan x="0" y="0">E</tspan></text>
    <text id="S" transform="translate(638.657 8438.888) rotate(-13.924)" fill="#70ea78" font-size="12" font-family="UniversLTPro-BoldExt, Univers LT Pro" font-weight="700"><tspan x="0" y="0">S</tspan></text>
    <text id="T-2" data-name="T" transform="translate(648.489 8436.416) rotate(-15.85)" fill="#70ea78" font-size="12" font-family="UniversLTPro-BoldExt, Univers LT Pro" font-weight="700"><tspan x="0" y="0">T</tspan></text>
    <text id="_." data-name="." transform="translate(656.139 8434.221) rotate(-17.845)" fill="#70ea78" font-size="12" font-family="UniversLTPro-BoldExt, Univers LT Pro" font-weight="700"><tspan x="0" y="0">.</tspan></text>
    <text id="_4" data-name=" " transform="translate(660.825 8432.711) rotate(-18.525)" fill="#70ea78" font-size="12" font-family="UniversLTPro-BoldExt, Univers LT Pro" font-weight="700"><tspan x="0" y="0"> </tspan></text>
    <text id="P" transform="translate(665.5 8431.168) rotate(-20.61)" fill="#70ea78" font-size="12" font-family="UniversLTPro-BoldExt, Univers LT Pro" font-weight="700"><tspan x="0" y="0">P</tspan></text>
    <text id="H" transform="matrix(0.917, -0.399, 0.399, 0.917, 674.998, 8427.615)" fill="#70ea78" font-size="12" font-family="UniversLTPro-BoldExt, Univers LT Pro" font-weight="700"><tspan x="0" y="0">H</tspan></text>
    <text id="A" transform="translate(685.089 8423.22) rotate(-25.814)" fill="#70ea78" font-size="12" font-family="UniversLTPro-BoldExt, Univers LT Pro" font-weight="700"><tspan x="0" y="0">A</tspan></text>
    <text id="S-2" data-name="S" transform="translate(695.783 8418.06) rotate(-27.061)" fill="#70ea78" font-size="12" font-family="UniversLTPro-BoldExt, Univers LT Pro" font-weight="700"><tspan x="0" y="0">S</tspan></text>
    <text id="E-5" data-name="E" transform="matrix(0.883, -0.469, 0.469, 0.883, 704.815, 8413.454)" fill="#70ea78" font-size="12" font-family="UniversLTPro-BoldExt, Univers LT Pro" font-weight="700"><tspan x="0" y="0">E</tspan></text>
    <text id="L" transform="matrix(0.875, -0.484, 0.484, 0.875, 712.999, 8409.098)" fill="#70ea78" font-size="12" font-family="UniversLTPro-BoldExt, Univers LT Pro" font-weight="700"><tspan x="0" y="0">L</tspan></text>
    <text id="L-2" data-name="L" transform="translate(720.352 8405.028) rotate(-29.866)" fill="#70ea78" font-size="12" font-family="UniversLTPro-BoldExt, Univers LT Pro" font-weight="700"><tspan x="0" y="0">L</tspan></text>
    <text id="U-3" data-name="U" transform="matrix(0.856, -0.517, 0.517, 0.856, 727.65, 8400.861)" fill="#70ea78" font-size="12" font-family="UniversLTPro-BoldExt, Univers LT Pro" font-weight="700"><tspan x="0" y="0">U</tspan></text>
    <text id="S-3" data-name="S" transform="matrix(0.845, -0.535, 0.535, 0.845, 737.083, 8395.189)" fill="#70ea78" font-size="12" font-family="UniversLTPro-BoldExt, Univers LT Pro" font-weight="700"><tspan x="0" y="0">S</tspan></text>
    <text id="_5" data-name=" " transform="translate(745.639 8389.752) rotate(-32.973)" fill="#70ea78" font-size="12" font-family="UniversLTPro-BoldExt, Univers LT Pro" font-weight="700"><tspan x="0" y="0"> </tspan></text>
    <text id="A-2" data-name="A" transform="translate(749.528 8387.24) rotate(-33.903)" fill="#70ea78" font-size="12" font-family="UniversLTPro-BoldExt, Univers LT Pro" font-weight="700"><tspan x="0" y="0">A</tspan></text>
    <text id="T-3" data-name="T" transform="translate(758.647 8381.077) rotate(-35.139)" fill="#70ea78" font-size="12" font-family="UniversLTPro-BoldExt, Univers LT Pro" font-weight="700"><tspan x="0" y="0">T</tspan></text>
    <text id="_6" data-name=" " transform="matrix(0.808, -0.589, 0.589, 0.808, 766.203, 8375.727)" fill="#70ea78" font-size="12" font-family="UniversLTPro-BoldExt, Univers LT Pro" font-weight="700"><tspan x="0" y="0"> </tspan></text>
    <text id="E-6" data-name="E" transform="matrix(0.799, -0.602, 0.602, 0.799, 770.191, 8372.84)" fill="#70ea78" font-size="12" font-family="UniversLTPro-BoldExt, Univers LT Pro" font-weight="700"><tspan x="0" y="0">E</tspan></text>
    <text id="X" transform="translate(777.6 8367.267) rotate(-38.216)" fill="#70ea78" font-size="12" font-family="UniversLTPro-BoldExt, Univers LT Pro" font-weight="700"><tspan x="0" y="0">X</tspan></text>
    <text id="_7" data-name=" " transform="translate(786.224 8360.43) rotate(-39.135)" fill="#70ea78" font-size="12" font-family="UniversLTPro-BoldExt, Univers LT Pro" font-weight="700"><tspan x="0" y="0"> </tspan></text>
    <text id="N-4" data-name="N" transform="matrix(0.762, -0.648, 0.648, 0.762, 790.059, 8357.342)" fill="#70ea78" font-size="12" font-family="UniversLTPro-BoldExt, Univers LT Pro" font-weight="700"><tspan x="0" y="0">N</tspan></text>
    <text id="E-7" data-name="E" transform="translate(799.103 8349.648) rotate(-41.88)" fill="#70ea78" font-size="12" font-family="UniversLTPro-BoldExt, Univers LT Pro" font-weight="700"><tspan x="0" y="0">E</tspan></text>
    <text id="C-2" data-name="C" transform="matrix(0.73, -0.683, 0.683, 0.73, 806.017, 8343.471)" fill="#70ea78" font-size="12" font-family="UniversLTPro-BoldExt, Univers LT Pro" font-weight="700"><tspan x="0" y="0">C</tspan></text>
    <text id="_8" data-name=" " transform="translate(814.034 8335.932) rotate(-44.307)" fill="#70ea78" font-size="12" font-family="UniversLTPro-BoldExt, Univers LT Pro" font-weight="700"><tspan x="0" y="0"> </tspan></text>
    <text id="E-8" data-name="E" transform="translate(817.572 8332.508) rotate(-45.215)" fill="#70ea78" font-size="12" font-family="UniversLTPro-BoldExt, Univers LT Pro" font-weight="700"><tspan x="0" y="0">E</tspan></text>
    <text id="X-2" data-name="X" transform="matrix(0.685, -0.728, 0.728, 0.685, 824.115, 8325.939)" fill="#70ea78" font-size="12" font-family="UniversLTPro-BoldExt, Univers LT Pro" font-weight="700"><tspan x="0" y="0">X</tspan></text>
    <text id="_9" data-name=" " transform="translate(831.645 8317.912) rotate(-47.933)" fill="#70ea78" font-size="12" font-family="UniversLTPro-BoldExt, Univers LT Pro" font-weight="700"><tspan x="0" y="0"> </tspan></text>
    <text id="H-2" data-name="H" transform="translate(834.978 8314.288) rotate(-49.141)" fill="#70ea78" font-size="12" font-family="UniversLTPro-BoldExt, Univers LT Pro" font-weight="700"><tspan x="0" y="0">H</tspan></text>
    <text id="E-9" data-name="E" transform="matrix(0.634, -0.773, 0.773, 0.634, 842.18, 8305.966)" fill="#70ea78" font-size="12" font-family="UniversLTPro-BoldExt, Univers LT Pro" font-weight="700"><tspan x="0" y="0">E</tspan></text>
    <text id="N-5" data-name="N" transform="translate(848.067 8298.803) rotate(-52.172)" fill="#70ea78" font-size="12" font-family="UniversLTPro-BoldExt, Univers LT Pro" font-weight="700"><tspan x="0" y="0">N</tspan></text>
    <text id="D-2" data-name="D" transform="translate(855.339 8289.416) rotate(-54.314)" fill="#70ea78" font-size="12" font-family="UniversLTPro-BoldExt, Univers LT Pro" font-weight="700"><tspan x="0" y="0">D</tspan></text>
    <text id="R" transform="translate(861.763 8280.479) rotate(-56.175)" fill="#70ea78" font-size="12" font-family="UniversLTPro-BoldExt, Univers LT Pro" font-weight="700"><tspan x="0" y="0">R</tspan></text>
    <text id="E-10" data-name="E" transform="translate(867.87 8271.322) rotate(-58.07)" fill="#70ea78" font-size="12" font-family="UniversLTPro-BoldExt, Univers LT Pro" font-weight="700"><tspan x="0" y="0">E</tspan></text>
    <text id="R-2" data-name="R" transform="translate(872.788 8263.461) rotate(-60.342)" fill="#70ea78" font-size="12" font-family="UniversLTPro-BoldExt, Univers LT Pro" font-weight="700"><tspan x="0" y="0">R</tspan></text>
    <text id="I-2" data-name="I" transform="translate(878.196 8253.876) rotate(-62.021)" fill="#70ea78" font-size="12" font-family="UniversLTPro-BoldExt, Univers LT Pro" font-weight="700"><tspan x="0" y="0">I</tspan></text>
    <text id="T-4" data-name="T" transform="matrix(0.442, -0.897, 0.897, 0.442, 880.528, 8249.54)" fill="#70ea78" font-size="12" font-family="UniversLTPro-BoldExt, Univers LT Pro" font-weight="700"><tspan x="0" y="0">T</tspan></text>
    <text id="_10" data-name=" " transform="matrix(0.413, -0.911, 0.911, 0.413, 884.576, 8241.213)" fill="#70ea78" font-size="12" font-family="UniversLTPro-BoldExt, Univers LT Pro" font-weight="700"><tspan x="0" y="0"> </tspan></text>
    <text id="S-4" data-name="S" transform="translate(886.62 8236.734) rotate(-66.99)" fill="#70ea78" font-size="12" font-family="UniversLTPro-BoldExt, Univers LT Pro" font-weight="700"><tspan x="0" y="0">S</tspan></text>
    <text id="O" transform="translate(890.575 8227.398) rotate(-68.534)" fill="#70ea78" font-size="12" font-family="UniversLTPro-BoldExt, Univers LT Pro" font-weight="700"><tspan x="0" y="0">O</tspan></text>
    <text id="D-3" data-name="D" transform="matrix(0.359, -0.933, 0.933, 0.359, 894.915, 8216.335)" fill="#70ea78" font-size="12" font-family="UniversLTPro-BoldExt, Univers LT Pro" font-weight="700"><tspan x="0" y="0">D</tspan></text>
    <text id="A-3" data-name="A" transform="translate(898.694 8206.461) rotate(-68.58)" fill="#70ea78" font-size="12" font-family="UniversLTPro-BoldExt, Univers LT Pro" font-weight="700"><tspan x="0" y="0">A</tspan></text>
    <text id="L-3" data-name="L" transform="translate(903.039 8195.411) rotate(-67.285)" fill="#70ea78" font-size="12" font-family="UniversLTPro-BoldExt, Univers LT Pro" font-weight="700"><tspan x="0" y="0">L</tspan></text>
    <text id="E-11" data-name="E" transform="translate(906.282 8187.658) rotate(-65.427)" fill="#70ea78" font-size="12" font-family="UniversLTPro-BoldExt, Univers LT Pro" font-weight="700"><tspan x="0" y="0">E</tspan></text>
    <text id="S-5" data-name="S" transform="translate(910.095 8179.201) rotate(-61.413)" fill="#70ea78" font-size="12" font-family="UniversLTPro-BoldExt, Univers LT Pro" font-weight="700"><tspan x="0" y="0">S</tspan></text>
    <text id="_11" data-name=" " transform="matrix(0.526, -0.85, 0.85, 0.526, 915.004, 8170.33)" fill="#70ea78" font-size="12" font-family="UniversLTPro-BoldExt, Univers LT Pro" font-weight="700"><tspan x="0" y="0"> </tspan></text>
    <text id="T-5" data-name="T" transform="matrix(0.599, -0.801, 0.801, 0.599, 917.294, 8166.458)" fill="#70ea78" font-size="12" font-family="UniversLTPro-BoldExt, Univers LT Pro" font-weight="700"><tspan x="0" y="0">T</tspan></text>
    <text id="E-12" data-name="E" transform="matrix(0.72, -0.694, 0.694, 0.72, 922.812, 8158.992)" fill="#70ea78" font-size="12" font-family="UniversLTPro-BoldExt, Univers LT Pro" font-weight="700"><tspan x="0" y="0">E</tspan></text>
    <text id="M-2" data-name="M" transform="matrix(0.871, -0.491, 0.491, 0.871, 929.316, 8152.223)" fill="#70ea78" font-size="12" font-family="UniversLTPro-BoldExt, Univers LT Pro" font-weight="700"><tspan x="0" y="0">M</tspan></text>
    <text id="P-2" data-name="P" transform="matrix(0.953, -0.303, 0.303, 0.953, 942.815, 8144.897)" fill="#70ea78" font-size="12" font-family="UniversLTPro-BoldExt, Univers LT Pro" font-weight="700"><tspan x="0" y="0">P</tspan></text>
    <text id="O-2" data-name="O" transform="translate(952.524 8141.768) rotate(-3.766)" fill="#70ea78" font-size="12" font-family="UniversLTPro-BoldExt, Univers LT Pro" font-weight="700"><tspan x="0" y="0">O</tspan></text>
    <text id="R-3" data-name="R" transform="translate(964.424 8141.094) rotate(9.207)" fill="#70ea78" font-size="12" font-family="UniversLTPro-BoldExt, Univers LT Pro" font-weight="700"><tspan x="0" y="0">R</tspan></text>
    <text id="_12" data-name=" " transform="translate(975.236 8143.136) rotate(17.982)" fill="#70ea78" font-size="12" font-family="UniversLTPro-BoldExt, Univers LT Pro" font-weight="700"><tspan x="0" y="0"> </tspan></text>
    <text id="S-6" data-name="S" transform="translate(979.996 8144.489) rotate(25.413)" fill="#70ea78" font-size="12" font-family="UniversLTPro-BoldExt, Univers LT Pro" font-weight="700"><tspan x="0" y="0">S</tspan></text>
    <text id="I-3" data-name="I" transform="translate(989.107 8148.937) rotate(30.76)" fill="#70ea78" font-size="12" font-family="UniversLTPro-BoldExt, Univers LT Pro" font-weight="700"><tspan x="0" y="0">I</tspan></text>
    <text id="T-6" data-name="T" transform="matrix(0.816, 0.577, -0.577, 0.816, 993.374, 8151.404)" fill="#70ea78" font-size="12" font-family="UniversLTPro-BoldExt, Univers LT Pro" font-weight="700"><tspan x="0" y="0">T</tspan></text>
    <text id="_13" data-name=" " transform="translate(1000.88 8156.827) rotate(39.624)" fill="#70ea78" font-size="12" font-family="UniversLTPro-BoldExt, Univers LT Pro" font-weight="700"><tspan x="0" y="0"> </tspan></text>
    <text id="A-4" data-name="A" transform="matrix(0.739, 0.673, -0.673, 0.739, 1004.489, 8159.732)" fill="#70ea78" font-size="12" font-family="UniversLTPro-BoldExt, Univers LT Pro" font-weight="700"><tspan x="0" y="0">A</tspan></text>
    <text id="M-3" data-name="M" transform="translate(1013.281 8167.715) rotate(44.722)" fill="#70ea78" font-size="12" font-family="UniversLTPro-BoldExt, Univers LT Pro" font-weight="700"><tspan x="0" y="0">M</tspan></text>
    <text id="E-13" data-name="E" transform="translate(1024.157 8178.536) rotate(45.403)" fill="#70ea78" font-size="12" font-family="UniversLTPro-BoldExt, Univers LT Pro" font-weight="700"><tspan x="0" y="0">E</tspan></text>
    <text id="T-7" data-name="T" transform="matrix(0.706, 0.708, -0.708, 0.706, 1030.659, 8185.144)" fill="#70ea78" font-size="12" font-family="UniversLTPro-BoldExt, Univers LT Pro" font-weight="700"><tspan x="0" y="0">T</tspan></text>
    <text id="_14" data-name=" " transform="matrix(0.716, 0.698, -0.698, 0.716, 1037.208, 8191.69)" fill="#70ea78" font-size="12" font-family="UniversLTPro-BoldExt, Univers LT Pro" font-weight="700"><tspan x="0" y="0"> </tspan></text>
    <text id="L-4" data-name="L" transform="matrix(0.731, 0.683, -0.683, 0.731, 1040.718, 8195.142)" fill="#70ea78" font-size="12" font-family="UniversLTPro-BoldExt, Univers LT Pro" font-weight="700"><tspan x="0" y="0">L</tspan></text>
    <text id="I-4" data-name="I" transform="translate(1046.872 8200.865) rotate(41.373)" fill="#70ea78" font-size="12" font-family="UniversLTPro-BoldExt, Univers LT Pro" font-weight="700"><tspan x="0" y="0">I</tspan></text>
    <text id="G-2" data-name="G" transform="matrix(0.779, 0.627, -0.627, 0.779, 1050.514, 8204.182)" fill="#70ea78" font-size="12" font-family="UniversLTPro-BoldExt, Univers LT Pro" font-weight="700"><tspan x="0" y="0">G</tspan></text>
    <text id="U-4" data-name="U" transform="translate(1059.78 8211.614) rotate(34.145)" fill="#70ea78" font-size="12" font-family="UniversLTPro-BoldExt, Univers LT Pro" font-weight="700"><tspan x="0" y="0">U</tspan></text>
    <text id="L-5" data-name="L" transform="translate(1068.915 8217.762) rotate(28.968)" fill="#70ea78" font-size="12" font-family="UniversLTPro-BoldExt, Univers LT Pro" font-weight="700"><tspan x="0" y="0">L</tspan></text>
    <text id="A-5" data-name="A" transform="matrix(0.915, 0.403, -0.403, 0.915, 1076.234, 8221.914)" fill="#70ea78" font-size="12" font-family="UniversLTPro-BoldExt, Univers LT Pro" font-weight="700"><tspan x="0" y="0">A</tspan></text>
    <text id="_.-2" data-name="." transform="translate(1087.169 8226.536) rotate(18.844)" fill="#70ea78" font-size="12" font-family="UniversLTPro-BoldExt, Univers LT Pro" font-weight="700"><tspan x="0" y="0">.</tspan></text>
    <text id="_15" data-name=" " transform="translate(1091.832 8228.114) rotate(15.963)" fill="#70ea78" font-size="12" font-family="UniversLTPro-BoldExt, Univers LT Pro" font-weight="700"><tspan x="0" y="0"> </tspan></text>
    <text id="P-3" data-name="P" transform="matrix(0.98, 0.201, -0.201, 0.98, 1096.548, 8229.553)" fill="#70ea78" font-size="12" font-family="UniversLTPro-BoldExt, Univers LT Pro" font-weight="700"><tspan x="0" y="0">P</tspan></text>
    <text id="H-3" data-name="H" transform="translate(1106.485 8231.609) rotate(5.89)" fill="#70ea78" font-size="12" font-family="UniversLTPro-BoldExt, Univers LT Pro" font-weight="700"><tspan x="0" y="0">H</tspan></text>
    <text id="A-6" data-name="A" transform="matrix(1, 0.008, -0.008, 1, 1117.44, 8232.767)" fill="#70ea78" font-size="12" font-family="UniversLTPro-BoldExt, Univers LT Pro" font-weight="700"><tspan x="0" y="0">A</tspan></text>
    <text id="S-7" data-name="S" transform="translate(1129.317 8232.832) rotate(-3.995)" fill="#70ea78" font-size="12" font-family="UniversLTPro-BoldExt, Univers LT Pro" font-weight="700"><tspan x="0" y="0">S</tspan></text>
    <text id="E-14" data-name="E" transform="translate(1139.43 8232.104) rotate(-6.222)" fill="#70ea78" font-size="12" font-family="UniversLTPro-BoldExt, Univers LT Pro" font-weight="700"><tspan x="0" y="0">E</tspan></text>
    <text id="L-6" data-name="L" transform="matrix(0.991, -0.136, 0.136, 0.991, 1148.65, 8231.128)" fill="#70ea78" font-size="12" font-family="UniversLTPro-BoldExt, Univers LT Pro" font-weight="700"><tspan x="0" y="0">L</tspan></text>
    <text id="L-7" data-name="L" transform="matrix(0.988, -0.154, 0.154, 0.988, 1156.977, 8229.993)" fill="#70ea78" font-size="12" font-family="UniversLTPro-BoldExt, Univers LT Pro" font-weight="700"><tspan x="0" y="0">L</tspan></text>
    <text id="U-5" data-name="U" transform="translate(1165.286 8228.724) rotate(-10.897)" fill="#70ea78" font-size="12" font-family="UniversLTPro-BoldExt, Univers LT Pro" font-weight="700"><tspan x="0" y="0">U</tspan></text>
    <text id="S-8" data-name="S" transform="translate(1176.098 8226.664) rotate(-12.921)" fill="#70ea78" font-size="12" font-family="UniversLTPro-BoldExt, Univers LT Pro" font-weight="700"><tspan x="0" y="0">S</tspan></text>
    <text id="_16" data-name=" " transform="translate(1185.977 8224.385) rotate(-14.414)" fill="#70ea78" font-size="12" font-family="UniversLTPro-BoldExt, Univers LT Pro" font-weight="700"><tspan x="0" y="0"> </tspan></text>
    <text id="A-7" data-name="A" transform="translate(1190.476 8223.287) rotate(-15.882)" fill="#70ea78" font-size="12" font-family="UniversLTPro-BoldExt, Univers LT Pro" font-weight="700"><tspan x="0" y="0">A</tspan></text>
    <text id="_17" data-name=" " transform="translate(1201.88 8219.981) rotate(-17.802)" fill="#70ea78" font-size="12" font-family="UniversLTPro-BoldExt, Univers LT Pro" font-weight="700"><tspan x="0" y="0"> </tspan></text>
    <text id="T-8" data-name="T" transform="translate(1206.163 8218.637) rotate(-19.211)" fill="#70ea78" font-size="12" font-family="UniversLTPro-BoldExt, Univers LT Pro" font-weight="700"><tspan x="0" y="0">T</tspan></text>
    <text id="E-15" data-name="E" transform="translate(1214.902 8215.573) rotate(-21.498)" fill="#70ea78" font-size="12" font-family="UniversLTPro-BoldExt, Univers LT Pro" font-weight="700"><tspan x="0" y="0">E</tspan></text>
    <text id="_-" data-name="-" transform="translate(1223.512 8212.134) rotate(-23.705)" fill="#70ea78" font-size="12" font-family="UniversLTPro-BoldExt, Univers LT Pro" font-weight="700"><tspan x="0" y="0">-</tspan></text>
  </g>
</svg>
